<svg xmlns="http://www.w3.org/2000/svg" viewBox="0 0 184.11 80.73"><defs><style>.cls-1{fill:#1d1d1b;}</style></defs><g id="Capa_2" data-name="Capa 2"><g id="Capa_1-2" data-name="Capa 1"><path d="M71.17,18.59c-16-6.9-30.94-14.91-48.23-15.86A20.75,20.75,0,0,0,12,5.38C5.4,8.89,2.49,13.94,3.49,20.14c.86,5.4,6.5,10.33,12.93,11.44,6.7,1.16,13.11-.64,19.63-1.5-7.63,3.19-15.33,6.08-23.83,3.36C6.18,31.52,1.3,28,.2,21.49-.86,15.22,2.37,10.23,7.33,6.63,17-.36,27.83-1.21,39.1,1.25c13.18,2.88,25,9.34,38.14,14.39L29.09,55c4.64.25,8.45.41,12.26.67,8.68.59,16.81,3.55,25.1,5.83,18.21,5,36.4,4.07,54.55-.38a13,13,0,0,1,3.34-.43c-20.73,7.4-41.76,8.59-63.1,2.77-8.62-2.35-17.16-5-26.26-4.75-5.67.12-11.2.66-16.58,3C34.71,46.28,52.84,33,71.17,18.59Z"/><path d="M61.44,40.34a13.33,13.33,0,0,0-6.26,3.08c-1.52,1.42-3,3.62-3,5.77,0,2.71,3.49,2.63,5.33,1.9a11.92,11.92,0,0,0,5.31-4.5,6.38,6.38,0,0,0,1.19-3.68,2.44,2.44,0,0,0-2.13-2.38c-.79-.09-.79,1.16,0,1.25s1,1.37.8,2a7,7,0,0,1-1.13,2.42,11.14,11.14,0,0,1-4.11,3.54,4.93,4.93,0,0,1-2.93.45c-.36-.06-.83-.13-1-.5a1.89,1.89,0,0,1,0-1.08,8.21,8.21,0,0,1,2.66-4.44,12.09,12.09,0,0,1,5.59-2.65c.78-.17.45-1.38-.34-1.21Z"/><path d="M57.88,42.18c.33,2.5,1,6.71,4.23,6.78,2,0,4.16-1.56,5.53-2.91,2.08-2.06,4-4.35,5.93-6.5l-1-.61c-.29,1.21-.88,3.1,0,4.17s2.37.75,3.52.35l-.61-1c-1.58,1.59-3.3,3.39-3.58,5.73s1.42,3.12,3.44,2.78c2.48-.4,4.63-1.93,6.73-3.21A47,47,0,0,0,88,43.54c.62-.52-.27-1.4-.88-.88a54.58,54.58,0,0,1-8.82,5.84c-1.32.73-5.7,2.62-5.13-.47.35-1.92,1.87-3.41,3.19-4.73a.63.63,0,0,0-.61-1c-.83.28-2,.7-2.3-.35a5.32,5.32,0,0,1,.27-2.64.63.63,0,0,0-1-.61L67.63,44.2A16.36,16.36,0,0,1,65,46.56c-1.18.84-2.93,1.79-4.17.56s-1.45-3.43-1.65-4.94c-.1-.78-1.35-.79-1.25,0Z"/><path d="M103,21.16l3.25-1.52-.86-.86c-4.08,5.79-8.37,11.43-12.74,17q-3.18,4.07-6.39,8.11c-2,2.58-3.93,5.46-6.35,7.69-.59.54.29,1.43.88.88,2.42-2.23,4.32-5.11,6.36-7.68,2.23-2.83,4.47-5.65,6.68-8.49,4.33-5.54,8.59-11.14,12.64-16.89.4-.56-.35-1.09-.85-.85l-3.25,1.52c-.73.34-.1,1.42.63,1.08Z"/><path d="M81.85,51.53c4.5-5.31,11.49-8.4,18.3-9.27.79-.1.8-1.36,0-1.25C93,41.92,85.69,45.07,81,50.65c-.52.61.36,1.5.88.88Z"/><path d="M86.59,47.22c1.44-.59,3.12-1,4.47,0A14.9,14.9,0,0,0,93.87,49a13,13,0,0,0,3.76.76,10.65,10.65,0,0,0,3.94-.17c2.23-.63,4.12-2.21,5.89-3.65a25.86,25.86,0,0,0,5.11-5.44c.4-.58-.51-1.29-1-.76a2.35,2.35,0,0,0-.14,3,2.78,2.78,0,0,0,3.42.56l-.63-1.08c-1.9,1.37-3.93,3.08-4.09,5.6a2.89,2.89,0,0,0,.91,2.56c.9.63,2.42.37,3.42.25.79-.09.8-1.34,0-1.25a5.48,5.48,0,0,1-2.2.09c-1.1-.48-1-1.67-.66-2.61a8.16,8.16,0,0,1,3.25-3.56.63.63,0,0,0-.63-1.08c-1,.46-2.84-.42-1.76-1.63l-1-.76a24.66,24.66,0,0,1-4.92,5.18c-2,1.63-4.2,3.47-6.9,3.56a18.09,18.09,0,0,1-4-.35,8.87,8.87,0,0,1-3.78-2c-1.66-1.33-3.79-1.08-5.68-.3-.74.3-.42,1.51.33,1.2Z"/><path d="M114.45,50.67a10,10,0,0,0,3.13-2c1.08-.89,2.15-1.81,3.25-2.67a21.15,21.15,0,0,1,7.73-3.9c.54-.15,1.62-.66,2.17-.39.8.4.4,1.65.13,2.27a6.94,6.94,0,0,1-2.67,3,12.64,12.64,0,0,1-4.12,1.61,2.65,2.65,0,0,1-2.39-.27,2.63,2.63,0,0,1-.52-2,.63.63,0,0,0-1.25,0,3.57,3.57,0,0,0,1.16,3.09,4.33,4.33,0,0,0,3.64.31,11.07,11.07,0,0,0,6.7-4.14,4.81,4.81,0,0,0,1-3.45,2,2,0,0,0-2.22-1.68,19.71,19.71,0,0,0-4.38,1.24,18,18,0,0,0-3.78,2,45.67,45.67,0,0,0-3.69,2.83c-1.25,1.05-2.61,2.52-4.19,3-.77.24-.44,1.45.33,1.2Z"/><path d="M130.51,44.78c-.54,1.28-1.56,3.76-.61,5.07s3.23,1,4.57.71c4.19-1.07,7.07-5.07,9.86-8.08l-1-.75c-1.42,1.87-3.46,3.26-4.37,5.49-.3.74-.66,1.85-.13,2.57a3.17,3.17,0,0,0,2.23,1c2.12.18,4-1.18,5.49-2.56a31.41,31.41,0,0,0,4.32-5.48c.41-.62-.48-1.19-1-.75a7.39,7.39,0,0,0-2.35,6.7c.54,2.63,3.2,2.7,5.15,1.57a.63.63,0,0,0-.63-1.08,2.5,2.5,0,0,1-2.55.38,2.29,2.29,0,0,1-.81-2.27,6.26,6.26,0,0,1,2.08-4.42l-1-.76c-1.78,2.64-4,6.37-7.31,7.28-.82.23-2.56.39-2.62-.73a4.2,4.2,0,0,1,1-2.32c1-1.43,2.44-2.54,3.51-4,.43-.57-.5-1.28-1-.76-2.09,2.24-4.1,4.87-6.69,6.56a7.63,7.63,0,0,1-4.32,1.39,2.75,2.75,0,0,1-1.25-.22c-.52-.38-.37-1-.29-1.52a9.68,9.68,0,0,1,.69-2.4c.31-.73-.77-1.37-1.08-.63Z"/><path d="M153.92,32.87l29.59-.13a.63.63,0,0,0,0-1.25l-29.59.13a.63.63,0,0,0,0,1.25Z"/><path d="M152.07,50.55A44.64,44.64,0,0,0,164.61,41c1.95-2.06,3.76-4.24,5.5-6.47s3.3-4.92,5.42-6.84c.6-.53-.28-1.42-.88-.88-2,1.8-3.44,4.26-5.08,6.38-1.75,2.28-3.58,4.5-5.55,6.61a43.93,43.93,0,0,1-12.58,9.67c-.72.35-.09,1.43.63,1.08Z"/><path d="M174,41.49c-2.53,2-4.43,4.79-7.33,6.3a9.2,9.2,0,0,1-4.7.94c-1.95-.14-1.74-2.54-1.49-4,.14-.79-1.06-1.12-1.2-.33-.28,1.55-.48,3.86.93,5a3.49,3.49,0,0,0,2.31.58,13.65,13.65,0,0,0,3-.41c3.93-1.1,6.25-4.78,9.31-7.2.63-.5-.26-1.38-.88-.88Z"/><path class="cls-1" d="M35.75,80.47A1.74,1.74,0,0,1,35,79.7a2.68,2.68,0,0,1-.26-1.22V76.82A2.71,2.71,0,0,1,35,75.6a1.8,1.8,0,0,1,.75-.77,2.39,2.39,0,0,1,1.18-.26,2.12,2.12,0,0,1,1,.24,2,2,0,0,1,.74.71,3.16,3.16,0,0,1,.41,1.13H37.91a1.48,1.48,0,0,0-.21-.51.92.92,0,0,0-.33-.32.83.83,0,0,0-.44-.12,1,1,0,0,0-.55.14.79.79,0,0,0-.34.38,1.4,1.4,0,0,0-.12.6v1.66a1.34,1.34,0,0,0,.12.6.84.84,0,0,0,.34.38,1,1,0,0,0,.55.13.82.82,0,0,0,.44-.11.87.87,0,0,0,.34-.32,1.47,1.47,0,0,0,.2-.51h1.18a3,3,0,0,1-.41,1.12,2,2,0,0,1-.74.72,2.12,2.12,0,0,1-1,.24A2.51,2.51,0,0,1,35.75,80.47Z"/><path class="cls-1" d="M41.74,80.45a1.83,1.83,0,0,1-.78-.78,2.41,2.41,0,0,1-.27-1.17V76.79A2.46,2.46,0,0,1,41,75.62a2,2,0,0,1,.78-.78,2.61,2.61,0,0,1,2.31,0,2,2,0,0,1,.77.78,2.36,2.36,0,0,1,.28,1.17V78.5a2.3,2.3,0,0,1-.28,1.17,1.87,1.87,0,0,1-.77.78,2.52,2.52,0,0,1-2.31,0Zm1.69-1a.86.86,0,0,0,.36-.37,1.13,1.13,0,0,0,.13-.56V76.76a1.09,1.09,0,0,0-.13-.55.81.81,0,0,0-.36-.37,1,1,0,0,0-.54-.14,1.09,1.09,0,0,0-.54.14.92.92,0,0,0-.36.37,1.2,1.2,0,0,0-.12.55v1.77a1.25,1.25,0,0,0,.12.56,1,1,0,0,0,.36.37,1.08,1.08,0,0,0,.54.13A1,1,0,0,0,43.43,79.46Z"/><path class="cls-1" d="M47.07,74.63h1.39l2.25,4.63-.1.1V74.63H51.7v6H50.3l-2.24-4.55.1-.11v4.66H47.07Z"/><path class="cls-1" d="M53.38,74.63h4.43v1.1H53.38Zm1.65.49h1.13v5.55H55Z"/><path class="cls-1" d="M60.68,74.63h.72l2.31,6H62.48L61,76.54l-1.45,4.13H58.37Zm-1.2,4h3.18v1.1H59.48Z"/><path class="cls-1" d="M65.31,74.63h1.14v6H65.31Zm.57,4.94h1.45a1.26,1.26,0,0,0,.87-.27.94.94,0,0,0,.31-.76V76.76A.94.94,0,0,0,68.2,76a1.26,1.26,0,0,0-.87-.27H65.88v-1.1h1.43a3,3,0,0,1,1.29.25,1.88,1.88,0,0,1,.81.74,2.3,2.3,0,0,1,.28,1.17V78.5a2.29,2.29,0,0,1-.27,1.14,1.84,1.84,0,0,1-.8.76,2.93,2.93,0,0,1-1.32.27H65.88Z"/><path class="cls-1" d="M72.5,80.45a1.87,1.87,0,0,1-.77-.78,2.3,2.3,0,0,1-.28-1.17V76.79a2.36,2.36,0,0,1,.28-1.17,2,2,0,0,1,.77-.78,2.39,2.39,0,0,1,1.16-.27,2.35,2.35,0,0,1,1.15.27,2,2,0,0,1,.78.78,2.46,2.46,0,0,1,.27,1.17V78.5a2.41,2.41,0,0,1-.27,1.17,1.83,1.83,0,0,1-.78.78,2.25,2.25,0,0,1-1.15.28A2.29,2.29,0,0,1,72.5,80.45Zm1.7-1a1,1,0,0,0,.36-.37,1.25,1.25,0,0,0,.12-.56V76.76a1.2,1.2,0,0,0-.12-.55.92.92,0,0,0-.36-.37,1.09,1.09,0,0,0-.54-.14,1,1,0,0,0-.54.14.81.81,0,0,0-.36.37,1.09,1.09,0,0,0-.13.55v1.77a1.13,1.13,0,0,0,.13.56.86.86,0,0,0,.36.37,1,1,0,0,0,.54.13A1.08,1.08,0,0,0,74.2,79.46Z"/><path class="cls-1" d="M77.84,74.62H79v6H77.84Zm.45,2.52h2.1a.51.51,0,0,0,.51-.33.92.92,0,0,0,.08-.38.87.87,0,0,0-.07-.37.58.58,0,0,0-.21-.25.54.54,0,0,0-.31-.09h-2.1v-1.1h2.19a1.7,1.7,0,0,1,.88.23,1.47,1.47,0,0,1,.58.63,2.08,2.08,0,0,1,.21,1,2,2,0,0,1-.21.95,1.47,1.47,0,0,1-.58.63,1.72,1.72,0,0,1-.88.23H78.29Zm1.27.91,1.22-.19,1.62,2.81H81Z"/><path class="cls-1" d="M84.23,74.63h1.14v6H84.23Zm.41,0h3.64v1.1H84.64Zm0,2.49h3.18v1.1H84.64Zm0,2.45h3.64v1.1H84.64Z"/><path class="cls-1" d="M91.22,80.64a3.39,3.39,0,0,1-.78-.25,2.87,2.87,0,0,1-.65-.41l.53-.94a2.46,2.46,0,0,0,.81.45,2.94,2.94,0,0,0,.94.15,1.59,1.59,0,0,0,.86-.19.59.59,0,0,0,.31-.53h0a.56.56,0,0,0-.14-.39.79.79,0,0,0-.36-.2,2.82,2.82,0,0,0-.56-.12H92A6.71,6.71,0,0,1,91,78a1.48,1.48,0,0,1-.68-.51,1.61,1.61,0,0,1-.28-1h0a1.86,1.86,0,0,1,.26-1,1.71,1.71,0,0,1,.76-.64A3.42,3.42,0,0,1,93,74.64a3.2,3.2,0,0,1,.66.22,3.74,3.74,0,0,1,.62.34l-.48,1a3.35,3.35,0,0,0-.73-.37,2.24,2.24,0,0,0-.73-.14,1.52,1.52,0,0,0-.81.18.53.53,0,0,0-.29.48h0a.56.56,0,0,0,.15.41.91.91,0,0,0,.37.22,4.72,4.72,0,0,0,.62.15h.16a5.32,5.32,0,0,1,1,.28,1.43,1.43,0,0,1,.64.51,1.64,1.64,0,0,1,.26,1h0a1.64,1.64,0,0,1-1.06,1.62,3.28,3.28,0,0,1-1.24.21A4,4,0,0,1,91.22,80.64Z"/><path class="cls-1" d="M99.39,74.63h1.14v6H99.39Zm.58,4.94h1.44a1.26,1.26,0,0,0,.87-.27.94.94,0,0,0,.31-.76V76.76a.94.94,0,0,0-.31-.76,1.26,1.26,0,0,0-.87-.27H100v-1.1h1.42a3,3,0,0,1,1.29.25,1.77,1.77,0,0,1,.81.74,2.3,2.3,0,0,1,.28,1.17V78.5a2.29,2.29,0,0,1-.27,1.14,1.79,1.79,0,0,1-.8.76,2.91,2.91,0,0,1-1.31.27H100Z"/><path class="cls-1" d="M105.74,74.63h1.14v6h-1.14Zm.41,0h3.64v1.1h-3.64Zm0,2.49h3.18v1.1h-3.18Zm0,2.45h3.64v1.1h-3.64Z"/><path class="cls-1" d="M112.73,80.64a3.39,3.39,0,0,1-.78-.25,2.87,2.87,0,0,1-.65-.41l.53-.94a2.46,2.46,0,0,0,.81.45,2.94,2.94,0,0,0,.94.15,1.61,1.61,0,0,0,.86-.19.59.59,0,0,0,.31-.53h0a.56.56,0,0,0-.14-.39.79.79,0,0,0-.36-.2,2.82,2.82,0,0,0-.56-.12h-.14a6.71,6.71,0,0,1-1-.24,1.48,1.48,0,0,1-.68-.51,1.61,1.61,0,0,1-.28-1h0a1.86,1.86,0,0,1,.26-1,1.71,1.71,0,0,1,.76-.64,3.42,3.42,0,0,1,1.87-.14,3,3,0,0,1,.66.22,3.74,3.74,0,0,1,.62.34l-.49,1a3.07,3.07,0,0,0-.72-.37,2.24,2.24,0,0,0-.73-.14,1.52,1.52,0,0,0-.81.18.53.53,0,0,0-.29.48h0a.56.56,0,0,0,.15.41.91.91,0,0,0,.37.22,4.72,4.72,0,0,0,.62.15H114a5.32,5.32,0,0,1,1,.28,1.43,1.43,0,0,1,.64.51,1.64,1.64,0,0,1,.26,1h0a1.64,1.64,0,0,1-1.06,1.62,3.28,3.28,0,0,1-1.24.21A4,4,0,0,1,112.73,80.64Z"/><path class="cls-1" d="M117.68,74.63h1.14v6h-1.14Zm.58,4.94h1.45a1.25,1.25,0,0,0,.86-.27.94.94,0,0,0,.31-.76V76.76a.94.94,0,0,0-.31-.76,1.25,1.25,0,0,0-.86-.27h-1.45v-1.1h1.42a3,3,0,0,1,1.29.25,1.77,1.77,0,0,1,.81.74,2.3,2.3,0,0,1,.28,1.17V78.5a2.29,2.29,0,0,1-.27,1.14,1.79,1.79,0,0,1-.8.76,2.91,2.91,0,0,1-1.31.27h-1.42Z"/><path class="cls-1" d="M124,74.63h1.14v6H124Zm.41,0h3.64v1.1h-3.64Zm0,2.49h3.18v1.1h-3.18Zm0,2.45h3.64v1.1h-3.64Z"/><path class="cls-1" d="M134.6,80.67h-1.13V76l-.74.27V75l.9-.41h1Z"/><path class="cls-1" d="M138.67,77.67l.21.15a.63.63,0,0,1-.32.28,1.22,1.22,0,0,1-.49.09,1.4,1.4,0,0,1-1.34-.84,2.12,2.12,0,0,1-.19-.93h0a2.23,2.23,0,0,1,.2-1,1.48,1.48,0,0,1,.61-.63,2,2,0,0,1,1-.21,1.91,1.91,0,0,1,.95.22,1.43,1.43,0,0,1,.6.64,2.22,2.22,0,0,1,.21,1h0a2.6,2.6,0,0,1-.09.65,5.48,5.48,0,0,1-.24.76l-.05.12s0,.07,0,.11l-1.08,2.59h-1.21Zm.1-.74a.81.81,0,0,0,.16-.54h0a.74.74,0,0,0-.16-.52.58.58,0,0,0-.46-.19.57.57,0,0,0-.47.19.77.77,0,0,0-.17.53h0a.78.78,0,0,0,.17.54.58.58,0,0,0,.47.2A.58.58,0,0,0,138.77,76.93Z"/><path class="cls-1" d="M142.72,80.52a1.52,1.52,0,0,1-.67-.58,1.65,1.65,0,0,1-.24-.89V79a1.65,1.65,0,0,1,.25-.85,1.69,1.69,0,0,1,.67-.6,1.48,1.48,0,0,1-.58-.5,1.24,1.24,0,0,1-.21-.69v-.16a1.54,1.54,0,0,1,.22-.83,1.56,1.56,0,0,1,.63-.56,2.42,2.42,0,0,1,1.88,0,1.56,1.56,0,0,1,.63.56,1.54,1.54,0,0,1,.22.83v.16a1.21,1.21,0,0,1-.22.7,1.45,1.45,0,0,1-.58.49,1.69,1.69,0,0,1,.67.6,1.56,1.56,0,0,1,.25.85v.1a1.64,1.64,0,0,1-.23.89,1.52,1.52,0,0,1-.67.58,2.53,2.53,0,0,1-2,0Zm1.41-1a.7.7,0,0,0,.28-.26.87.87,0,0,0,.1-.39v-.06a.69.69,0,0,0-.1-.36.78.78,0,0,0-.27-.24,1.07,1.07,0,0,0-.41-.08,1,1,0,0,0-.41.08.7.7,0,0,0-.27.24.65.65,0,0,0-.1.36v.07a.7.7,0,0,0,.1.38.62.62,0,0,0,.27.26.91.91,0,0,0,.41.09A.84.84,0,0,0,144.13,79.54ZM144.07,77a.59.59,0,0,0,.23-.24.86.86,0,0,0,.08-.36V76.3a.74.74,0,0,0-.08-.34.54.54,0,0,0-.23-.22.74.74,0,0,0-.34-.08.71.71,0,0,0-.34.08.51.51,0,0,0-.23.23.6.6,0,0,0-.08.33v.06a.68.68,0,0,0,.08.36.59.59,0,0,0,.23.24.71.71,0,0,0,.34.08A.74.74,0,0,0,144.07,77Z"/><path class="cls-1" d="M149.53,77.67l.2.15a.61.61,0,0,1-.31.28,1.28,1.28,0,0,1-.5.09,1.44,1.44,0,0,1-.8-.22,1.55,1.55,0,0,1-.54-.62,2.12,2.12,0,0,1-.19-.93h0a2.23,2.23,0,0,1,.21-1,1.4,1.4,0,0,1,.6-.63,2,2,0,0,1,1-.21,1.88,1.88,0,0,1,1,.22,1.4,1.4,0,0,1,.61.64,2.36,2.36,0,0,1,.2,1h0a3.11,3.11,0,0,1-.08.65,5.59,5.59,0,0,1-.25.76s0,.08,0,.12l-.05.11-1.08,2.59h-1.21Zm.09-.74a.81.81,0,0,0,.16-.54h0a.74.74,0,0,0-.16-.52.56.56,0,0,0-.46-.19.58.58,0,0,0-.47.19.76.76,0,0,0-.16.53h0a.77.77,0,0,0,.16.54.59.59,0,0,0,.47.2A.57.57,0,0,0,149.62,76.93Z"/></g></g></svg>