<svg xmlns="http://www.w3.org/2000/svg" viewBox="0 0 362.03 362.03"><defs><style>.cls-1{fill:#702c2e;}.cls-2{fill:#fff;}</style></defs><g id="Capa_2" data-name="Capa 2"><g id="Capa_1-2" data-name="Capa 1"><rect class="cls-1" width="362.03" height="362.03" rx="64.62"/><rect class="cls-2" x="130.55" y="274.68" width="100.93" height="10.87" rx="0.56"/><rect class="cls-2" x="176.63" y="76.48" width="8.77" height="41.65" rx="0.45"/><rect class="cls-2" x="177.32" y="44.5" width="7.39" height="71.34" rx="0.38" transform="translate(100.84 261.18) rotate(-90)"/><path class="cls-2" d="M137.87,86.47h.19v-10h-.24c-54.14,0-98,21.79-98,48.67h98.28V115.08H61.16C61.16,99.28,95.51,86.47,137.87,86.47Z"/><rect class="cls-2" x="81.22" y="98.42" width="3.14" height="20.79" rx="0.16"/><rect class="cls-2" x="95.59" y="94.13" width="3.14" height="25.08" rx="0.16"/><rect class="cls-2" x="110.12" y="90.65" width="3.14" height="27.48" rx="0.16"/><rect class="cls-2" x="124.66" y="87.97" width="3.14" height="28.91" rx="0.16"/><path class="cls-2" d="M224.16,86.47H224v-10h.24c54.14,0,98,21.79,98,48.67H224V115.08h76.89C300.86,99.28,266.52,86.47,224.16,86.47Z"/><rect class="cls-2" x="277.66" y="98.42" width="3.14" height="20.79" rx="0.16" transform="translate(558.46 217.62) rotate(-180)"/><rect class="cls-2" x="263.3" y="94.13" width="3.14" height="25.08" rx="0.16" transform="translate(529.74 213.33) rotate(180)"/><rect class="cls-2" x="248.76" y="90.65" width="3.14" height="27.48" rx="0.16" transform="translate(500.66 208.78) rotate(-180)"/><rect class="cls-2" x="234.22" y="87.97" width="3.14" height="28.91" rx="0.16" transform="matrix(-1, 0, 0, -1, 471.59, 204.85)"/><rect class="cls-2" x="177.32" y="89.29" width="7.39" height="71.34" rx="0.38" transform="translate(56.05 305.97) rotate(-90)"/><rect class="cls-2" x="177.32" y="123.56" width="7.39" height="71.34" rx="0.38" transform="translate(21.79 340.24) rotate(-90)"/><rect class="cls-2" x="145.34" y="121.27" width="8.77" height="41.65" rx="0.45"/><rect class="cls-2" x="207.91" y="121.27" width="8.77" height="41.65" rx="0.45"/><rect class="cls-2" x="176.63" y="169.63" width="8.77" height="41.65" rx="0.45"/><rect class="cls-2" x="177.32" y="137.66" width="7.39" height="71.34" rx="0.38" transform="translate(7.69 354.34) rotate(-90)"/><rect class="cls-2" x="177.32" y="190.13" width="7.39" height="71.34" rx="0.38" transform="translate(-44.78 406.81) rotate(-90)"/><rect class="cls-2" x="145.34" y="187.84" width="8.77" height="41.65" rx="0.45"/><rect class="cls-2" x="207.91" y="187.84" width="8.77" height="41.65" rx="0.45"/><rect class="cls-2" x="145.34" y="231.26" width="8.77" height="41.65" rx="0.45"/><rect class="cls-2" x="206.69" y="231.26" width="8.77" height="41.65" rx="0.45"/><path class="cls-2" d="M146.78,232.79l.86-.57a6.77,6.77,0,0,1,7,0l30.14,20.07c1.92,1.27,1.92,3.35,0,4.62l-.85.57a6.77,6.77,0,0,1-6.95,0l-30.15-20.06C144.86,236.14,144.86,234.07,146.78,232.79Z"/><path class="cls-2" d="M176.93,257.48l-.86-.57c-1.92-1.27-1.92-3.35,0-4.62l30.14-20.07a6.77,6.77,0,0,1,6.95,0l.86.57c1.92,1.28,1.92,3.35,0,4.63l-30.14,20.06A6.77,6.77,0,0,1,176.93,257.48Z"/></g></g></svg>