<svg xmlns="http://www.w3.org/2000/svg" viewBox="0 0 233.34 172.72"><defs><style>.cls-1{fill:#fff;}</style></defs><g id="Capa_2" data-name="Capa 2"><g id="Capa_1-2" data-name="Capa 1"><rect class="cls-1" x="74.98" y="163.74" width="83.38" height="8.98" rx="0.56"/><rect class="cls-1" x="113.05" width="7.24" height="34.41" rx="0.45"/><rect class="cls-1" x="113.62" y="-26.41" width="6.11" height="58.93" rx="0.38" transform="translate(113.62 119.72) rotate(-90)"/><path class="cls-1" d="M81,8.25h.15V0H81C36.26,0,0,18,0,40.21H81.18V31.89H17.66C17.66,18.84,46,8.25,81,8.25Z"/><rect class="cls-1" x="34.23" y="18.13" width="2.59" height="17.17" rx="0.16"/><rect class="cls-1" x="46.1" y="14.58" width="2.59" height="20.72" rx="0.16"/><rect class="cls-1" x="58.11" y="11.71" width="2.59" height="22.7" rx="0.16"/><rect class="cls-1" x="70.12" y="9.5" width="2.59" height="23.88" rx="0.16"/><path class="cls-1" d="M152.31,8.25h-.15V0h.19c44.73,0,81,18,81,40.21H152.16V31.89h63.52C215.68,18.84,187.31,8.25,152.31,8.25Z"/><rect class="cls-1" x="196.51" y="18.13" width="2.59" height="17.17" rx="0.16" transform="translate(395.62 53.43) rotate(-180)"/><rect class="cls-1" x="184.65" y="14.58" width="2.59" height="20.72" rx="0.16" transform="translate(371.89 49.88) rotate(-180)"/><rect class="cls-1" x="172.64" y="11.71" width="2.59" height="22.7" rx="0.16" transform="translate(347.87 46.12) rotate(-180)"/><rect class="cls-1" x="160.63" y="9.5" width="2.59" height="23.88" rx="0.16" transform="translate(323.85 42.87) rotate(180)"/><rect class="cls-1" x="113.62" y="10.59" width="6.11" height="58.93" rx="0.38" transform="translate(76.62 156.72) rotate(-90)"/><rect class="cls-1" x="113.62" y="38.89" width="6.11" height="58.93" rx="0.38" transform="translate(48.31 185.03) rotate(-90)"/><rect class="cls-1" x="87.2" y="37" width="7.24" height="34.41" rx="0.45"/><rect class="cls-1" x="138.89" y="37" width="7.24" height="34.41" rx="0.45"/><rect class="cls-1" x="113.05" y="76.96" width="7.24" height="34.41" rx="0.45"/><rect class="cls-1" x="113.62" y="50.54" width="6.11" height="58.93" rx="0.38" transform="translate(36.66 196.68) rotate(-90)"/><rect class="cls-1" x="113.62" y="93.89" width="6.11" height="58.93" rx="0.38" transform="translate(-6.69 240.03) rotate(-90)"/><rect class="cls-1" x="87.2" y="92" width="7.24" height="34.41" rx="0.45"/><rect class="cls-1" x="138.89" y="92" width="7.24" height="34.41" rx="0.45"/><rect class="cls-1" x="87.2" y="127.87" width="7.24" height="34.41" rx="0.45"/><rect class="cls-1" x="137.88" y="127.87" width="7.24" height="34.41" rx="0.45"/><path class="cls-1" d="M88.39,129.13l.71-.47a5.58,5.58,0,0,1,5.74,0l24.9,16.58a2.13,2.13,0,0,1,0,3.82l-.7.47a5.6,5.6,0,0,1-5.75,0L88.39,133A2.13,2.13,0,0,1,88.39,129.13Z"/><path class="cls-1" d="M113.29,149.53l-.7-.47a2.13,2.13,0,0,1,0-3.82l24.9-16.58a5.58,5.58,0,0,1,5.74,0l.71.47a2.13,2.13,0,0,1,0,3.82L119,149.53A5.6,5.6,0,0,1,113.29,149.53Z"/></g></g></svg>