<svg xmlns="http://www.w3.org/2000/svg" viewBox="0 0 43.61 14.98"><defs><style>.cls-1{fill:#fff;}</style></defs><g id="Capa_2" data-name="Capa 2"><g id="Capa_1-2" data-name="Capa 1"><rect class="cls-1" x="6.5" y="14.2" width="7.23" height="0.78" rx="0.39"/><rect class="cls-1" x="9.81" width="0.63" height="2.98" rx="0.31"/><rect class="cls-1" x="9.86" y="-2.29" width="0.53" height="5.11" rx="0.26" transform="translate(9.86 10.39) rotate(-90)"/><path class="cls-1" d="M7,.72H7V0H7C3.15,0,0,1.56,0,3.49H7V2.77H1.53C1.53,1.63,4,.72,7,.72Z"/><rect class="cls-1" x="2.97" y="1.57" width="0.23" height="1.49" rx="0.11"/><rect class="cls-1" x="4" y="1.26" width="0.23" height="1.8" rx="0.11"/><rect class="cls-1" x="5.04" y="1.02" width="0.23" height="1.97" rx="0.11"/><rect class="cls-1" x="6.08" y="0.82" width="0.23" height="2.07" rx="0.11"/><path class="cls-1" d="M13.21.72h0V0h0c3.88,0,7,1.56,7,3.49h-7V2.77h5.51C18.71,1.63,16.25.72,13.21.72Z"/><rect class="cls-1" x="17.05" y="1.57" width="0.23" height="1.49" rx="0.11" transform="translate(34.32 4.63) rotate(180)"/><rect class="cls-1" x="16.02" y="1.26" width="0.23" height="1.8" rx="0.11" transform="translate(32.26 4.33) rotate(180)"/><rect class="cls-1" x="14.97" y="1.02" width="0.23" height="1.97" rx="0.11" transform="translate(30.17 4) rotate(-180)"/><rect class="cls-1" x="13.93" y="0.82" width="0.23" height="2.07" rx="0.11" transform="translate(28.09 3.72) rotate(-180)"/><rect class="cls-1" x="9.86" y="0.92" width="0.53" height="5.11" rx="0.26" transform="translate(6.65 13.59) rotate(-90)"/><rect class="cls-1" x="9.86" y="3.37" width="0.53" height="5.11" rx="0.26" transform="translate(4.19 16.05) rotate(-90)"/><rect class="cls-1" x="7.56" y="3.21" width="0.63" height="2.98" rx="0.31"/><rect class="cls-1" x="12.05" y="3.21" width="0.63" height="2.98" rx="0.31"/><rect class="cls-1" x="9.81" y="6.68" width="0.63" height="2.98" rx="0.31"/><rect class="cls-1" x="9.86" y="4.38" width="0.53" height="5.11" rx="0.26" transform="translate(3.18 17.06) rotate(-90)"/><rect class="cls-1" x="9.86" y="8.14" width="0.53" height="5.11" rx="0.26" transform="translate(-0.58 20.82) rotate(-90)"/><rect class="cls-1" x="7.56" y="7.98" width="0.63" height="2.98" rx="0.31"/><rect class="cls-1" x="12.05" y="7.98" width="0.63" height="2.98" rx="0.31"/><rect class="cls-1" x="7.56" y="11.09" width="0.63" height="2.98" rx="0.31"/><rect class="cls-1" x="11.96" y="11.09" width="0.63" height="2.98" rx="0.31"/><path class="cls-1" d="M7.67,11.2l.06,0a.5.5,0,0,1,.5,0l2.16,1.44a.19.19,0,0,1,0,.33l-.06,0a.5.5,0,0,1-.5,0L7.67,11.53A.18.18,0,0,1,7.67,11.2Z"/><path class="cls-1" d="M9.83,13l-.06,0a.18.18,0,0,1,0-.33l2.16-1.44a.48.48,0,0,1,.49,0l.07,0a.19.19,0,0,1,0,.33L10.33,13A.5.5,0,0,1,9.83,13Z"/><path class="cls-1" d="M19.34,6.42c0,.06,0,.08-.09.08l-1.31-.06c0,.73,0,1.24,0,1.53s0,.85,0,1.53,0,1.2,0,1.54c0,.06,0,.09,0,.1l-.12,0a7.16,7.16,0,0,1-.76,0,6.92,6.92,0,0,1-.79,0,.13.13,0,0,1-.12-.14c0-.34,0-.85,0-1.53s0-1.19,0-1.53,0-.73,0-1.51a13.8,13.8,0,0,1-1.38.09s-.07,0-.07,0a2.09,2.09,0,0,1,.07-.33,3.75,3.75,0,0,0,.07-.37l0-.4c0-.22.06-.33.11-.33h.06a17.66,17.66,0,0,0,2.07.09c.26,0,.74,0,1.44-.08l.57,0h.09a.14.14,0,0,1,0,.09c0,.07,0,.18,0,.32s0,.26,0,.33a2.39,2.39,0,0,0,0,.31A2.5,2.5,0,0,1,19.34,6.42Z"/><path class="cls-1" d="M25.82,8.14A3.15,3.15,0,0,1,25,10.4a2.91,2.91,0,0,1-2.22.93,2.94,2.94,0,0,1-2.22-.94,3.14,3.14,0,0,1-.87-2.25,3.17,3.17,0,0,1,.87-2.27,3.09,3.09,0,0,1,4.44,0A3.19,3.19,0,0,1,25.82,8.14Zm-1.64,0A1.68,1.68,0,0,0,23.78,7a1.33,1.33,0,0,0-1.05-.47,1.29,1.29,0,0,0-1,.49,1.61,1.61,0,0,0-.42,1.1,1.59,1.59,0,0,0,.39,1.1,1.4,1.4,0,0,0,2.1,0A1.6,1.6,0,0,0,24.18,8.13Z"/><path class="cls-1" d="M30.68,6.42c0,.06,0,.08-.1.08l-1.3-.06q0,1.09,0,1.53c0,.34,0,.85,0,1.53s.05,1.2.05,1.54c0,.06,0,.09,0,.1l-.13,0a7,7,0,0,1-.76,0,6.83,6.83,0,0,1-.78,0,.13.13,0,0,1-.12-.14c0-.34,0-.85,0-1.53S27.6,8.31,27.6,8s0-.73,0-1.51q-.87.09-1.38.09c-.05,0-.07,0-.07,0a3,3,0,0,1,.06-.33c0-.2.07-.32.08-.37l0-.4c0-.22,0-.33.1-.33h.06a17.74,17.74,0,0,0,2.08.09c.26,0,.74,0,1.43-.08l.57,0h.1s0,0,0,.09,0,.18,0,.32,0,.26,0,.33a2.39,2.39,0,0,0,0,.31A2.5,2.5,0,0,1,30.68,6.42Z"/><path class="cls-1" d="M36.31,9A2.94,2.94,0,0,1,36,10.55c-.32.49-1.13.73-2.42.73a5.14,5.14,0,0,1-1.34-.13,1.37,1.37,0,0,1-1-.83,3.58,3.58,0,0,1-.11-1.06c0-.12,0-.3,0-.53s0-.41,0-.52c0-.34,0-.84,0-1.51s-.05-1.17-.05-1.5c0-.07,0-.11.09-.11l.8,0,.8,0c.07,0,.1,0,.1.09q0,.57,0,1.71c0,.76,0,1.34,0,1.72a2,2,0,0,0,.14.91.86.86,0,0,0,.8.33A.78.78,0,0,0,34.67,9q0-.63,0-1.89c0-.83,0-1.46,0-1.88,0-.09,0-.13.11-.13l.77,0,.77,0c.08,0,.12,0,.12.11,0,.33,0,.83,0,1.5s0,1.17,0,1.51v.41C36.31,8.81,36.31,9,36.31,9Z"/><path class="cls-1" d="M43.61,11c0,.09,0,.14-.12.14H42c-.09,0-.13-.05-.13-.16,0-.29,0-.72,0-1.31s0-1,0-1.31c0-.08,0-.13,0-.13a11.55,11.55,0,0,0-.58,1.34l-.63,1.53c0,.07-.06.11-.1.12h-.18c-.15,0-.24,0-.27-.08-.15-.32-.36-.78-.61-1.39s-.48-1.1-.61-1.39l0-.05a.23.23,0,0,0,0,.13c0,.28,0,.71,0,1.27s0,1,0,1.27c0,.11,0,.16-.12.16H37.29c-.06,0-.1,0-.11,0a.22.22,0,0,1,0-.1c0-.31,0-.79.05-1.42s0-1.1,0-1.41,0-1,0-1.89c0-.24,0-.59,0-1.07V5.18c0-.06.06-.09.19-.09h.71l.72,0s.07.06.13.19L40.17,8c.09.19.17.28.23.28s.1-.11.2-.32l1.3-2.74c0-.12.1-.17.16-.17h.76a2.33,2.33,0,0,0,.33,0l.33,0c.09,0,.13,0,.13.1,0,.34,0,.85,0,1.53s0,1.19,0,1.53,0,.78,0,1.41S43.61,10.72,43.61,11Z"/><path class="cls-1" d="M17.21,13.51h-.9l-.19.44H16l.71-1.55h.11L17.54,14h-.13Zm0-.09-.41-.9-.4.9Z"/><path class="cls-1" d="M18.81,12.79v1a.54.54,0,0,1-.14.43.57.57,0,0,1-.42.14.94.94,0,0,1-.3-.05.59.59,0,0,1-.23-.14l.06-.08a.72.72,0,0,0,.21.12.75.75,0,0,0,.26,0,.48.48,0,0,0,.34-.11.5.5,0,0,0,.11-.34v-.2a.48.48,0,0,1-.2.2.61.61,0,0,1-.28.07.55.55,0,0,1-.29-.08.45.45,0,0,1-.21-.2.55.55,0,0,1-.08-.29.6.6,0,0,1,.08-.29.58.58,0,0,1,.21-.2.65.65,0,0,1,.29-.07.69.69,0,0,1,.29.07.64.64,0,0,1,.2.2v-.26Zm-.34,1a.4.4,0,0,0,.17-.17.51.51,0,0,0,0-.48.38.38,0,0,0-.17-.16.51.51,0,0,0-.48,0,.38.38,0,0,0-.17.16.51.51,0,0,0,0,.48.4.4,0,0,0,.17.17.51.51,0,0,0,.48,0Z"/><path class="cls-1" d="M20.26,13.4h-1a.61.61,0,0,0,.07.24.46.46,0,0,0,.18.16.48.48,0,0,0,.24.06.65.65,0,0,0,.21,0,.4.4,0,0,0,.16-.12l.07.07a.52.52,0,0,1-.19.14.7.7,0,0,1-.25.05.65.65,0,0,1-.31-.08.53.53,0,0,1-.21-.21.68.68,0,0,1,0-.6.51.51,0,0,1,.2-.21.51.51,0,0,1,.28-.08.54.54,0,0,1,.28.08.55.55,0,0,1,.2.2.62.62,0,0,1,.07.31Zm-.77-.47a.49.49,0,0,0-.16.16.4.4,0,0,0-.06.22h.88a.4.4,0,0,0-.06-.22.38.38,0,0,0-.16-.15.43.43,0,0,0-.22-.06A.54.54,0,0,0,19.49,12.93Z"/><path class="cls-1" d="M21.51,12.91a.45.45,0,0,1,.13.36V14h-.11v-.67a.4.4,0,0,0-.1-.3.41.41,0,0,0-.28-.1.44.44,0,0,0-.32.12.46.46,0,0,0-.11.33V14H20.6V12.79h.11V13a.47.47,0,0,1,.18-.19.61.61,0,0,1,.28-.07A.44.44,0,0,1,21.51,12.91Z"/><path class="cls-1" d="M22.26,13.88a.53.53,0,0,1-.21-.21.61.61,0,0,1-.08-.3.65.65,0,0,1,.08-.31.58.58,0,0,1,.21-.2.56.56,0,0,1,.3-.08.54.54,0,0,1,.25.06A.42.42,0,0,1,23,13l-.09.06a.31.31,0,0,0-.15-.13.46.46,0,0,0-.2,0,.54.54,0,0,0-.25.06.44.44,0,0,0-.16.17.56.56,0,0,0-.07.26.49.49,0,0,0,.07.25.4.4,0,0,0,.16.18.54.54,0,0,0,.25.06.46.46,0,0,0,.2,0,.31.31,0,0,0,.15-.13l.09.06a.42.42,0,0,1-.19.16.54.54,0,0,1-.25.06A.56.56,0,0,1,22.26,13.88Z"/><path class="cls-1" d="M23.32,12.48a.06.06,0,0,1,0-.06.07.07,0,0,1,0-.06l.06,0a.09.09,0,0,1,.07,0s0,0,0,.06,0,.05,0,.06a.09.09,0,0,1-.07,0Zm0,.31h.11V14h-.11Z"/><path class="cls-1" d="M24.63,12.89a.46.46,0,0,1,.11.32V14h-.1v-.21a.44.44,0,0,1-.17.16.49.49,0,0,1-.25.06.5.5,0,0,1-.31-.09.32.32,0,0,1,0-.48.45.45,0,0,1,.32-.09h.4v-.09a.33.33,0,0,0-.09-.25.36.36,0,0,0-.25-.08.54.54,0,0,0-.22,0,.54.54,0,0,0-.18.11L23.83,13a.45.45,0,0,1,.21-.12.75.75,0,0,1,.26-.05A.49.49,0,0,1,24.63,12.89Zm-.15.91a.36.36,0,0,0,.15-.19v-.22h-.39a.4.4,0,0,0-.25.06.21.21,0,0,0-.08.17.2.2,0,0,0,.09.18.37.37,0,0,0,.23.07A.49.49,0,0,0,24.48,13.8Z"/><path class="cls-1" d="M26.8,12.3V14h-.11v-.27a.43.43,0,0,1-.2.2.51.51,0,0,1-.28.08.6.6,0,0,1-.29-.08.51.51,0,0,1-.2-.21.61.61,0,0,1-.08-.3.65.65,0,0,1,.08-.31.55.55,0,0,1,.2-.2.6.6,0,0,1,.29-.08.51.51,0,0,1,.28.08.48.48,0,0,1,.2.2V12.3Zm-.34,1.5a.46.46,0,0,0,.16-.18.48.48,0,0,0,0-.5.46.46,0,0,0-.16-.18.51.51,0,0,0-.48,0,.46.46,0,0,0-.16.18.48.48,0,0,0,0,.5.46.46,0,0,0,.16.18.51.51,0,0,0,.48,0Z"/><path class="cls-1" d="M28.24,13.4h-1a.48.48,0,0,0,.06.24.55.55,0,0,0,.18.16.49.49,0,0,0,.25.06.78.78,0,0,0,.21,0,.61.61,0,0,0,.16-.12l.06.07a.45.45,0,0,1-.19.14.7.7,0,0,1-.25.05.61.61,0,0,1-.3-.08.63.63,0,0,1-.22-.21.68.68,0,0,1,0-.6.51.51,0,0,1,.2-.21.54.54,0,0,1,.28-.08.51.51,0,0,1,.28.08.55.55,0,0,1,.2.2.62.62,0,0,1,.07.31Zm-.77-.47a.46.46,0,0,0-.15.16.41.41,0,0,0-.07.22h.88a.4.4,0,0,0-.06-.22.33.33,0,0,0-.16-.15.4.4,0,0,0-.22-.06A.54.54,0,0,0,27.47,12.93Z"/><path class="cls-1" d="M29.19,12.4h.62a.82.82,0,0,1,.42.1.66.66,0,0,1,.3.27.85.85,0,0,1,0,.8.74.74,0,0,1-.3.28.93.93,0,0,1-.42.1h-.62Zm.61,1.45a.79.79,0,0,0,.38-.09.64.64,0,0,0,.25-.24.73.73,0,0,0,0-.7.64.64,0,0,0-.25-.24.92.92,0,0,0-.38-.08h-.5v1.35Z"/><path class="cls-1" d="M31,12.48a.06.06,0,0,1,0-.06.07.07,0,0,1,0-.06l.06,0a.09.09,0,0,1,.07,0,.08.08,0,0,1,0,.06.11.11,0,0,1,0,.06.09.09,0,0,1-.07,0Zm0,.31h.11V14H31Z"/><path class="cls-1" d="M31.59,13.91a.54.54,0,0,1-.2-.1l.06-.09a.5.5,0,0,0,.18.1.59.59,0,0,0,.23,0,.43.43,0,0,0,.26-.06.17.17,0,0,0,.08-.16.14.14,0,0,0,0-.11.24.24,0,0,0-.11-.06l-.19-.05a1,1,0,0,1-.22-.05.34.34,0,0,1-.14-.09.28.28,0,0,1-.06-.18.27.27,0,0,1,.11-.23.54.54,0,0,1,.33-.09.76.76,0,0,1,.21,0,.38.38,0,0,1,.18.09l-.05.08a.46.46,0,0,0-.16-.07.58.58,0,0,0-.19,0,.4.4,0,0,0-.24.06.17.17,0,0,0-.08.16.16.16,0,0,0,0,.12.27.27,0,0,0,.12.06l.19.05a1,1,0,0,1,.22.05.42.42,0,0,1,.14.09.23.23,0,0,1,.05.17.27.27,0,0,1-.12.23.54.54,0,0,1-.33.09A.81.81,0,0,1,31.59,13.91Z"/><path class="cls-1" d="M33.6,13.4h-1a.4.4,0,0,0,.07.24.44.44,0,0,0,.17.16.49.49,0,0,0,.25.06.78.78,0,0,0,.21,0,.61.61,0,0,0,.16-.12l.06.07a.45.45,0,0,1-.19.14.66.66,0,0,1-.25.05.61.61,0,0,1-.3-.08.63.63,0,0,1-.22-.21.68.68,0,0,1,0-.6.51.51,0,0,1,.2-.21.54.54,0,0,1,.28-.08.51.51,0,0,1,.28.08.55.55,0,0,1,.2.2.62.62,0,0,1,.07.31Zm-.77-.47a.46.46,0,0,0-.15.16.41.41,0,0,0-.07.22h.89a.52.52,0,0,0-.07-.22.33.33,0,0,0-.16-.15.4.4,0,0,0-.22-.06A.54.54,0,0,0,32.83,12.93Z"/><path class="cls-1" d="M34.86,12.91a.49.49,0,0,1,.12.36V14h-.11v-.67a.4.4,0,0,0-.1-.3.37.37,0,0,0-.27-.1.41.41,0,0,0-.32.12.46.46,0,0,0-.12.33V14H34V12.79h.1V13a.47.47,0,0,1,.18-.19.61.61,0,0,1,.28-.07A.46.46,0,0,1,34.86,12.91Zm-.34-.35a.21.21,0,0,1-.08-.06l-.06-.05-.06,0a.12.12,0,0,0-.08,0,.28.28,0,0,0,0,.11h-.07a.25.25,0,0,1,0-.16.19.19,0,0,1,.14-.07.11.11,0,0,1,.08,0,.16.16,0,0,1,.08.06l.07.05.05,0a.08.08,0,0,0,.08,0,.18.18,0,0,0,0-.1h.07a.28.28,0,0,1,0,.16.18.18,0,0,1-.13.06A.16.16,0,0,1,34.52,12.56Z"/><path class="cls-1" d="M35.6,13.88a.53.53,0,0,1-.21-.21.6.6,0,0,1,0-.6.53.53,0,0,1,.21-.21.57.57,0,0,1,.29-.08.61.61,0,0,1,.3.08.53.53,0,0,1,.21.21.68.68,0,0,1,0,.6.53.53,0,0,1-.21.21.61.61,0,0,1-.3.08A.57.57,0,0,1,35.6,13.88Zm.53-.08a.49.49,0,0,0,.17-.18.55.55,0,0,0,0-.5.49.49,0,0,0-.17-.18.48.48,0,0,0-.24-.06.44.44,0,0,0-.23.06.42.42,0,0,0-.17.18.55.55,0,0,0,0,.5.42.42,0,0,0,.17.18.44.44,0,0,0,.23.06A.48.48,0,0,0,36.13,13.8Z"/><path class="cls-1" d="M39.49,12.4,39,14h-.12l-.48-1.39L37.89,14h-.12l-.53-1.55h.12l.47,1.39.49-1.39h.1l.49,1.4.47-1.4Z"/><path class="cls-1" d="M40.67,13.4h-1a.4.4,0,0,0,.07.24.44.44,0,0,0,.17.16.51.51,0,0,0,.25.06.78.78,0,0,0,.21,0,.48.48,0,0,0,.16-.12l.06.07a.45.45,0,0,1-.19.14.64.64,0,0,1-.24.05.62.62,0,0,1-.31-.08.53.53,0,0,1-.21-.21.61.61,0,0,1-.08-.3.6.6,0,0,1,.07-.3.58.58,0,0,1,.2-.21.54.54,0,0,1,.28-.08.57.57,0,0,1,.29.08.52.52,0,0,1,.19.2.62.62,0,0,1,.08.31Zm-.77-.47a.46.46,0,0,0-.15.16.52.52,0,0,0-.07.22h.89a.52.52,0,0,0-.07-.22.33.33,0,0,0-.16-.15.38.38,0,0,0-.22-.06A.54.54,0,0,0,39.9,12.93Z"/><path class="cls-1" d="M41.89,12.86a.58.58,0,0,1,.21.2.64.64,0,0,1,.07.31.6.6,0,0,1-.07.3.53.53,0,0,1-.21.21.57.57,0,0,1-.29.08.54.54,0,0,1-.28-.08.52.52,0,0,1-.19-.2V14H41V12.3h.11v.76a.55.55,0,0,1,.19-.21.68.68,0,0,1,.28-.07A.57.57,0,0,1,41.89,12.86Zm-.06.94a.49.49,0,0,0,.17-.18.55.55,0,0,0,0-.5.49.49,0,0,0-.17-.18.51.51,0,0,0-.48,0,.46.46,0,0,0-.16.18.55.55,0,0,0,0,.5.46.46,0,0,0,.16.18.51.51,0,0,0,.48,0Z"/></g></g></svg>