<svg xmlns="http://www.w3.org/2000/svg" viewBox="0 0 28.97 21.44"><defs><style>.cls-1{fill:#fff;}</style></defs><g id="Capa_2" data-name="Capa 2"><g id="Capa_1-2" data-name="Capa 1"><rect class="cls-1" x="9.31" y="20.33" width="10.35" height="1.11" rx="0.56"/><rect class="cls-1" x="14.03" width="0.9" height="4.27" rx="0.45"/><rect class="cls-1" x="14.1" y="-3.28" width="0.76" height="7.32" rx="0.38" transform="translate(14.1 14.86) rotate(-90)"/><path class="cls-1" d="M10.06,1h0V0h0C4.5,0,0,2.23,0,5H10.08V4H2.19C2.19,2.34,5.71,1,10.06,1Z"/><rect class="cls-1" x="4.25" y="2.25" width="0.32" height="2.13" rx="0.16"/><rect class="cls-1" x="5.72" y="1.81" width="0.32" height="2.57" rx="0.16"/><rect class="cls-1" x="7.21" y="1.45" width="0.32" height="2.82" rx="0.16"/><rect class="cls-1" x="8.7" y="1.18" width="0.32" height="2.96" rx="0.16"/><path class="cls-1" d="M18.91,1h0V0h0C24.46,0,29,2.23,29,5H18.89V4h7.88C26.77,2.34,23.25,1,18.91,1Z"/><rect class="cls-1" x="24.39" y="2.25" width="0.32" height="2.13" rx="0.16" transform="translate(49.11 6.63) rotate(-180)"/><rect class="cls-1" x="22.92" y="1.81" width="0.32" height="2.57" rx="0.16" transform="translate(46.16 6.19) rotate(180)"/><rect class="cls-1" x="21.43" y="1.45" width="0.32" height="2.82" rx="0.16" transform="translate(43.18 5.73) rotate(180)"/><rect class="cls-1" x="19.94" y="1.18" width="0.32" height="2.96" rx="0.16" transform="translate(40.2 5.32) rotate(180)"/><rect class="cls-1" x="14.1" y="1.31" width="0.76" height="7.32" rx="0.38" transform="translate(9.51 19.46) rotate(-90)"/><rect class="cls-1" x="14.1" y="4.83" width="0.76" height="7.32" rx="0.38" transform="translate(6 22.97) rotate(-90)"/><rect class="cls-1" x="10.82" y="4.59" width="0.9" height="4.27" rx="0.45"/><rect class="cls-1" x="17.24" y="4.59" width="0.9" height="4.27" rx="0.45"/><rect class="cls-1" x="14.03" y="9.55" width="0.9" height="4.27" rx="0.45"/><rect class="cls-1" x="14.1" y="6.27" width="0.76" height="7.32" rx="0.38" transform="translate(4.55 24.41) rotate(-90)"/><rect class="cls-1" x="14.1" y="11.65" width="0.76" height="7.32" rx="0.38" transform="translate(-0.83 29.8) rotate(-90)"/><rect class="cls-1" x="10.82" y="11.42" width="0.9" height="4.27" rx="0.45"/><rect class="cls-1" x="17.24" y="11.42" width="0.9" height="4.27" rx="0.45"/><rect class="cls-1" x="10.82" y="15.87" width="0.9" height="4.27" rx="0.45"/><rect class="cls-1" x="17.12" y="15.87" width="0.9" height="4.27" rx="0.45"/><path class="cls-1" d="M11,16l.09-.06a.69.69,0,0,1,.71,0L14.86,18a.26.26,0,0,1,0,.47l-.08.06a.71.71,0,0,1-.72,0L11,16.5A.27.27,0,0,1,11,16Z"/><path class="cls-1" d="M14.06,18.56,14,18.5A.26.26,0,0,1,14,18L17.07,16a.69.69,0,0,1,.71,0l.09.06a.27.27,0,0,1,0,.47l-3.09,2.06A.71.71,0,0,1,14.06,18.56Z"/></g></g></svg>