<svg xmlns="http://www.w3.org/2000/svg" viewBox="0 0 282.46 209.07"><defs><style>.cls-1{fill:#702c2e;}</style></defs><g id="Capa_2" data-name="Capa 2"><g id="Capa_1-2" data-name="Capa 1"><rect class="cls-1" x="90.76" y="198.2" width="100.93" height="10.87" rx="0.56"/><rect class="cls-1" x="136.84" width="8.77" height="41.65" rx="0.45"/><rect class="cls-1" x="137.53" y="-31.97" width="7.39" height="71.34" rx="0.38" transform="translate(137.53 144.92) rotate(-90)"/><path class="cls-1" d="M98.08,10h.19V0H98C43.89,0,0,21.79,0,48.67H98.27V38.6H21.38C21.38,22.8,55.72,10,98.08,10Z"/><rect class="cls-1" x="41.44" y="21.94" width="3.14" height="20.79" rx="0.16"/><rect class="cls-1" x="55.8" y="17.65" width="3.14" height="25.08" rx="0.16"/><rect class="cls-1" x="70.34" y="14.17" width="3.14" height="27.48" rx="0.16"/><rect class="cls-1" x="84.88" y="11.5" width="3.14" height="28.91" rx="0.16"/><path class="cls-1" d="M184.37,10h-.18V0h.23c54.14,0,98,21.79,98,48.67H184.19V38.6h76.89C261.08,22.8,226.73,10,184.37,10Z"/><rect class="cls-1" x="237.88" y="21.94" width="3.14" height="20.79" rx="0.16" transform="translate(478.89 64.67) rotate(-180)"/><rect class="cls-1" x="223.51" y="17.65" width="3.14" height="25.08" rx="0.16" transform="translate(450.17 60.38) rotate(180)"/><rect class="cls-1" x="208.98" y="14.17" width="3.14" height="27.48" rx="0.16" transform="translate(421.09 55.83) rotate(-180)"/><rect class="cls-1" x="194.44" y="11.5" width="3.14" height="28.91" rx="0.16" transform="matrix(-1, 0, 0, -1, 392.02, 51.9)"/><rect class="cls-1" x="137.53" y="12.82" width="7.39" height="71.34" rx="0.38" transform="translate(92.74 189.71) rotate(-90)"/><rect class="cls-1" x="137.53" y="47.08" width="7.39" height="71.34" rx="0.38" transform="translate(58.48 223.98) rotate(-90)"/><rect class="cls-1" x="105.56" y="44.79" width="8.77" height="41.65" rx="0.45"/><rect class="cls-1" x="168.13" y="44.79" width="8.77" height="41.65" rx="0.45"/><rect class="cls-1" x="136.84" y="93.15" width="8.77" height="41.65" rx="0.45"/><rect class="cls-1" x="137.53" y="61.18" width="7.39" height="71.34" rx="0.38" transform="translate(44.38 238.08) rotate(-90)"/><rect class="cls-1" x="137.53" y="113.65" width="7.39" height="71.34" rx="0.38" transform="translate(-8.09 290.55) rotate(-90)"/><rect class="cls-1" x="105.56" y="111.36" width="8.77" height="41.65" rx="0.45"/><rect class="cls-1" x="168.13" y="111.36" width="8.77" height="41.65" rx="0.45"/><rect class="cls-1" x="105.56" y="154.78" width="8.77" height="41.65" rx="0.45"/><rect class="cls-1" x="166.91" y="154.78" width="8.77" height="41.65" rx="0.45"/><path class="cls-1" d="M107,156.31l.85-.57a6.79,6.79,0,0,1,7,0L145,175.81c1.92,1.28,1.92,3.35,0,4.63l-.86.57a6.77,6.77,0,0,1-7,0L107,160.94C105.08,159.66,105.08,157.59,107,156.31Z"/><path class="cls-1" d="M137.14,181l-.86-.57c-1.92-1.28-1.92-3.35,0-4.63l30.15-20.07a6.77,6.77,0,0,1,6.95,0l.86.57c1.92,1.28,1.92,3.35,0,4.63L144.09,181A6.77,6.77,0,0,1,137.14,181Z"/></g></g></svg>