<svg xmlns="http://www.w3.org/2000/svg" viewBox="0 0 524.67 210.33"><defs><style>.cls-1{fill:#f6ab6a;}</style></defs><g id="Capa_2" data-name="Capa 2"><g id="Capa_1-2" data-name="Capa 1"><path class="cls-1" d="M524.63,170.68c0,12.71,0,25.43,0,38.15,0,1.23-.28,1.5-1.51,1.5q-162.79,0-325.58,0H0c0-17.5,0-35,0-52.51a2.53,2.53,0,0,1,1.71-2.74c2-.84,4-1.86,6-2.68s4.21-1.5,6.31-2.28c.62-.23,1.79-.16,1.69-.93s-1.18-.22-1.8-.39-1.08.23-1.48-.28c.24-.67,1.12-.68,1.31-1.32-.34-.65-1.05-.56-1.58-.9.86-1,2.41-1.16,3-2.46l.09,0-.07.06c-.66-.17-1.39.22-2.16-.25,1.44-1.59,3.49-2.53,4.57-4.52-.67-.15-1.45.21-1.65-.36s.56-1,1-1.3a14.28,14.28,0,0,0,2.83-2.93c.3-.4,1.75-1,.09-1.59.39-.54-.45-1.13-.2-1.38,1.19-1.2,2-2.78,3.21-3.83a15,15,0,0,0,2.52-2.78c.06-.08.18-.2.16-.23-.13-.21-.24-.07-.35,0-.47.06-.82.58-1.55.25A59.17,59.17,0,0,0,28,116.42,76.18,76.18,0,0,0,32.49,125c-.85.33-1.21-.6-2-.23.53.67,1,1.33,1.53,1.94,1.46,1.66,3,3.3,4.43,5l-.06.07c-.89.18-1.63-.41-2.47-.49l-.26-.06.1.21a13.06,13.06,0,0,0,2.2,3c.89,1.07,1.4.72,1.83-.35.07-.07.2-.19.18-.22-.12-.19-.26-.09-.38,0-.45,0-.59-.19-.37-.6.89-1.59,1.77-3.18,2.58-4.64,1-.06.5,1.8,1.66,1.1a5,5,0,0,0,2.23-2.43c-.61-.2-1.4.2-1.6-.38s.56-1,1-1.31A14,14,0,0,0,46,122.68c.31-.4,1.75-1,.09-1.59.38-.54-.45-1.13-.19-1.38,1.18-1.21,2-2.77,3.2-3.83a15,15,0,0,0,2.52-2.78c.06-.08.18-.2.16-.23-.13-.21-.24-.07-.35,0-.47.06-.82.58-1.55.25a59.17,59.17,0,0,0,4.43-8.53,77,77,0,0,0,4.44,8.58c-.84.32-1.2-.6-2-.23.57.72,1.08,1.42,1.64,2.06,1.43,1.63,2.88,3.23,4.32,4.84l-.06.05c-.89.19-1.63-.4-2.47-.48l-.26-.06.1.21a13.06,13.06,0,0,0,2.2,3c.89,1.07,1.4.72,1.83-.35.07-.07.2-.2.18-.22-.12-.19-.26-.09-.38,0-.44,0-.6-.17-.37-.59.88-1.59,1.76-3.18,2.76-5,1,1.85,1.91,3.54,2.82,5.22a2.39,2.39,0,0,0-.23.22c-.68-.12-.81.06-.34.6l3.4,3.87-.12.13-1.8-.32a20,20,0,0,0,3.43,3.87,1.94,1.94,0,0,0,2.23.38c3.63-1.33,7.27-2.62,10.91-3.93,1-.34,1.89-.71,2.84-1.06-2.19.24-4.07-1-6.18-1l1.38-1.14c-.39-.72-1.09-.62-1.61-1,.86-1,2.41-1.16,3-2.46l.1,0-.08.07c-.66-.18-1.39.22-2.16-.25,1.44-1.6,3.49-2.54,4.55-4.5-.64-.2-1.43.19-1.62-.39s.55-1,1-1.3a14.28,14.28,0,0,0,2.83-2.93c.3-.4,1.76-1,.09-1.58.38-.55-.44-1.13-.19-1.39,1.18-1.2,2-2.77,3.2-3.83A14.1,14.1,0,0,0,96.17,101c.06-.08.18-.2.17-.23-.13-.21-.25-.07-.36,0-.47.06-.82.58-1.55.26a60.24,60.24,0,0,0,4.43-8.53,77.07,77.07,0,0,0,4.43,8.54c-.83.36-1.2-.53-2-.25.61.77,1.12,1.47,1.68,2.12,1.43,1.62,2.88,3.22,4.32,4.83l-.06.06c-.89.18-1.63-.41-2.47-.49l-.26,0,.11.21a12.89,12.89,0,0,0,2.19,3c.89,1.07,1.4.72,1.83-.34.07-.08.2-.2.18-.23-.12-.19-.26-.09-.38,0-.44,0-.6-.18-.37-.59.89-1.6,1.77-3.19,2.64-4.74.85.14.51,1.82,1.6,1.18a4.93,4.93,0,0,0,2.23-2.42c-.61-.19-1.39.2-1.59-.38s.55-1,1-1.3a14.28,14.28,0,0,0,2.83-2.93c.3-.4,1.75-1,.09-1.58.38-.55-.44-1.13-.19-1.39,1.18-1.2,2-2.77,3.2-3.83a14.1,14.1,0,0,0,2.52-2.78c.06-.08.18-.2.17-.23-.13-.21-.25-.07-.36,0-.46.06-.82.58-1.55.26a59.83,59.83,0,0,0,4.43-8.54,75.33,75.33,0,0,0,4.45,8.58c-.85.33-1.21-.6-2-.23.57.72,1.08,1.42,1.64,2.07,1.43,1.62,2.88,3.22,4.32,4.83l-.06.06c-.89.18-1.63-.41-2.47-.49l-.26-.05.1.21a13.53,13.53,0,0,0,2.2,3c.89,1.07,1.4.72,1.83-.34.07-.08.2-.2.18-.23-.12-.19-.26-.09-.38,0-.43,0-.6-.17-.37-.58.88-1.6,1.76-3.19,2.76-5l2.82,5.23-.23.21c-.68-.11-.81.07-.33.61l3.39,3.87-.12.12-1.17-.16c-.13-.18-.29-.26-.46-.08,0,0,.12.23.19.34.56,1.27,1.37,1.75,2.66.89a5.89,5.89,0,0,1,1.21-.49c5.78-2.35,11.75-4.26,17.33-7.12.95-.36,1.9-.71,2.85-1.09.31-.12.57-.39.32-.74s-.49-.09-.66.12c-.66.79-1.68.9-2.52,1.34-1.37-.07-2.6-1-4-.62-.3.07-.78.21-1-.37l1.37-1.13c-.39-.73-1.09-.63-1.63-1,.89-1,2.42-1.14,3-2.44l.09,0-.07.06c-.66-.17-1.39.22-2.21-.28,1.55-1.51,3.5-2.54,4.62-4.44-.68-.26-1.55.23-1.74-.45s.64-.93,1.11-1.27a14.28,14.28,0,0,0,2.84-2.92c.31-.42,1.69-1,.08-1.59.4-.55-.47-1.11-.2-1.39,1.18-1.21,2-2.76,3.21-3.83a14.66,14.66,0,0,0,2.52-2.77c.06-.08.18-.2.17-.23-.13-.21-.25-.07-.36,0-.46.06-.82.58-1.57.24A58.22,58.22,0,0,0,173,62.74a77.39,77.39,0,0,0,4.43,8.55c-.84.33-1.2-.61-2-.23.53.67,1,1.33,1.53,1.94,1.46,1.66,2.95,3.3,4.43,5l-.06.07c-.89.18-1.63-.41-2.47-.49l-.26-.06.11.21a12.74,12.74,0,0,0,2.19,3c.89,1.07,1.4.72,1.83-.35.07-.07.2-.2.18-.22-.12-.19-.26-.09-.38,0-.44,0-.6-.18-.37-.59l2.64-4.75c.85.15.51,1.83,1.6,1.19a4.93,4.93,0,0,0,2.23-2.42c-.61-.2-1.4.2-1.6-.38s.57-1,1-1.31A14.29,14.29,0,0,0,190.89,69c.3-.4,1.74-1,.08-1.59.38-.54-.45-1.13-.19-1.38,1.18-1.21,2-2.77,3.2-3.84a14.33,14.33,0,0,0,2.52-2.77c.06-.08.18-.2.17-.23-.13-.21-.25-.08-.36,0-.46.06-.82.58-1.55.25a59.57,59.57,0,0,0,4.43-8.52,74.56,74.56,0,0,0,4.44,8.54c-.84.35-1.21-.54-2-.25.56.72,1,1.39,1.56,2,1.46,1.66,2.95,3.3,4.43,4.95l-.06.07c-.89.18-1.63-.41-2.47-.49l-.26-.06.1.21a13.06,13.06,0,0,0,2.2,3c.89,1.07,1.4.72,1.83-.35.07-.07.2-.2.18-.22-.12-.19-.26-.09-.38,0-.43,0-.6-.17-.37-.59.88-1.59,1.76-3.18,2.76-5,1,1.85,1.91,3.53,2.82,5.22l-.23.22c-.71-.12-.79.08-.33.61,1.13,1.3,2.24,2.6,3.36,3.91-.58.32-1.08-.32-1.8-.14.61,1,1.14,1.64,2.11.45,2.73-.79,5.27-1.58,6.54-4.68,1.49-3.68,3.51-7.14,5.26-10.71a2.86,2.86,0,0,1,2-1.7c4.94-1.37,9.86-2.82,14.79-4.24a3,3,0,0,1,1.44-.21c4.7.94,9.52,1.23,14.13,2.64a2.55,2.55,0,0,0,1.76.11q8-3.26,15.91-6.51c.36-.15,1-.27.51-.89s-.65-.15-.94.1c-.94.86-2.27,1.49-3.28,1.05-1.25-.55-2.41-.34-3.61-.48-.21,0-.43,0-.49-.3.23-.63,1.12-.64,1.3-1.28-.34-.65-1-.56-1.57-.9.85-1,2.41-1.16,3-2.46l.1,0-.07.06c-.67-.17-1.4.22-2.21-.27,1.54-1.52,3.5-2.55,4.62-4.46-.67-.21-1.45.18-1.65-.4s.56-1,1-1.3a14.33,14.33,0,0,0,2.84-2.93c.3-.4,1.75-1,.08-1.59.39-.54-.44-1.13-.19-1.38,1.18-1.21,2-2.77,3.2-3.83A14.38,14.38,0,0,0,284,23.69c.06-.08.19-.2.17-.23-.13-.21-.25-.07-.36,0-.46.06-.81.58-1.54.26,1.48-2.7,3.2-5.24,4.46-8.13,1.18,2.91,3,5.43,4.39,8.17-.83.33-1.19-.6-2-.23.56.72,1.07,1.42,1.64,2.06,1.42,1.63,2.87,3.23,4.31,4.84l-.06.06c-.89.18-1.63-.41-2.47-.49l-.26-.05.11.21a13.18,13.18,0,0,0,2.19,3c.89,1.07,1.41.72,1.84-.34.06-.08.19-.2.18-.23-.13-.19-.26-.09-.39,0-.45,0-.59-.18-.36-.59.88-1.6,1.77-3.19,2.63-4.74.85.14.52,1.82,1.61,1.18a4.91,4.91,0,0,0,2.22-2.42c-.61-.19-1.39.2-1.59-.38s.56-1,1-1.3a14.33,14.33,0,0,0,2.84-2.93c.3-.4,1.74-1,.08-1.59.39-.54-.44-1.13-.19-1.38,1.18-1.21,2-2.77,3.2-3.83a14.38,14.38,0,0,0,2.52-2.78c.06-.08.19-.2.17-.23-.13-.21-.25-.07-.36,0-.46.06-.81.58-1.54.26A61.28,61.28,0,0,0,313,3.44,76.87,76.87,0,0,0,317.41,12c-.85.33-1.21-.6-2-.23.53.68,1,1.34,1.53,1.94,1.46,1.67,2.95,3.31,4.42,5l-.06.06c-.89.18-1.63-.41-2.47-.49l-.26-.05.11.2a13,13,0,0,0,2.19,3c.89,1.07,1.41.72,1.84-.34.06-.08.19-.2.18-.23-.13-.19-.26-.09-.39,0-.43,0-.6-.17-.37-.59l2.76-5,2.82,5.23c-.08.06-.15.14-.23.21-1,0-.39.53-.19.77,1.06,1.25,2.17,2.47,3.26,3.7l-.13.13-1.59-.28c1.33,2.55,1.47,2.61,4,1.78,1.91-.64,3.87-1.2,5.73-2,2.35-1,4.91-1.52,6.92-3.27,3.25-2.83,6.51-5.65,9.84-8.39,1.81-1.48,3.36-3.29,5.56-4.28C367.3,6.07,373.73,3.2,380.12.26a1.69,1.69,0,0,1,2.26.41q6.56,6.53,13.2,13a9.49,9.49,0,0,1,2,2.77c2.56,5.3,4.93,10.69,8.77,15.28,2.59,3.09,4.84,6.47,7.3,9.67a4.19,4.19,0,0,1,1.14,3.42,2.59,2.59,0,0,0,.89,2.17,120,120,0,0,1,8.62,10.51c8.45,12.25,18.15,23.49,28.21,34.39,8.11,8.78,16.32,17.47,24.27,26.39,9.95,11.16,19.69,22.51,29.61,33.7C512.16,158.46,517.93,165,524.63,170.68Zm-481-32.77c1,1,1,2.38,2.61,2.14s1.29-1.25,1.32-2.27a1.61,1.61,0,0,0-.73-1.67c-.55-.29-.77.45-1.2.6-1,.35-.18,1-.1,1.62Zm72.67-23.68c-.55.42-1-.43-1.52,0,.54,1.76,1.68,1.29,2.81.77s.9-1.38.62-2.2c-.13-.37-.47-1-1.08-.54S115.33,113.11,116.25,114.23ZM52.19,137.86c-.87-.25-1.53-.47-2.19-.64-.39-.1-.87-.62-1.16-.17a1.89,1.89,0,0,0,.12,1.71c.25.57.78.18,1.14.08A3.73,3.73,0,0,0,52.19,137.86ZM192.46,83.44c-.13-.45-.4-1.11-.93-1.06A1.84,1.84,0,0,0,190,83.61c-.1.35.45,1.26.62,1.24C191.4,84.75,192.27,84.58,192.46,83.44ZM304.9,37.06c.63-.19,1.35-.33,1.27-1.19,0-.49-.42-1.07-.88-1a1.77,1.77,0,0,0-1.48,1.24C303.73,36.57,304.28,37,304.9,37.06Zm-214.8,88c.58-.15,1.26,0,1.55-.64,0-.1-.21-.47-.34-.47C90.62,124,90.36,124.53,90.1,125.09Z"/></g></g></svg>