<svg xmlns="http://www.w3.org/2000/svg" viewBox="0 0 396.74 145.09"><defs><style>.cls-1{fill:#ed6f4b;}</style></defs><g id="Capa_2" data-name="Capa 2"><g id="Capa_1-2" data-name="Capa 1"><path class="cls-1" d="M0,145.06V18.57a8.78,8.78,0,0,1,3.75,1.08,37.94,37.94,0,0,1,9.88,6.53c4.18,3.58,9,6,13.77,8.73.32.18.66.43,1,0s.93-.76,1-1.35c0-.17-.68-.19-.35-.74.76-1.26,1.45-2.55,2.21-3.91.78,1.38,1.51,2.69,2.24,4,.09.16.28.41-.07.46-.53.07-.35.29-.16.53s.51.31.78,0a12.56,12.56,0,0,0,1.59-2c.07-.12.32-.2.15-.37s-.31,0-.41.13c-.56-.05-1,.51-1.8.13,1.52-1.66,3.25-3.06,4.37-5,.1,0,.2-.05.12-.18a2.33,2.33,0,0,0-.23.09c-.35,0-.63.44-1.11.08A59,59,0,0,0,40,20.61c.24-.6.51-.18.68.23a33.68,33.68,0,0,0,2.6,4.89c.22.34.58.67.44,1.22l-1-.31-.26-.08.13.2a4.49,4.49,0,0,0,.29.53c.44.59,1.32.9,1.61,1.36a15.41,15.41,0,0,0,2.12,2.69c.46.48-.23,1,0,1.55-1.07.18-.21.64-.06.82a13.87,13.87,0,0,0,2.75,2.66c.21.16.5.38.37.71s-.4.23-.64.28-.48-.12-.65.16a16.52,16.52,0,0,0,2.23,2.12c.36.35,1.21.48,1,1.07s-1,0-1.46.26c.59.82,1.68,1,2.32,1.81-.41.38-1.11.11-1.33.69a2.82,2.82,0,0,1,.39.29c.21.23.74.26.63.65s-.63.27-1,.28c-.53,0-1.23-.24-1.56,0-1.06.81-1.9.16-2.83-.17-.35-.13-.63-.91-1.09-.25A1.26,1.26,0,0,0,45.92,46a3.9,3.9,0,0,0,.93.6L73.32,61.37c1.42.79,1.43.77,2.2-.59,0-.05.14-.05.26-.08.38.76.71,1.57,1.16,2.29.89,1.46,2.34,1.69,3.09.55.08-.12.32-.21.15-.37s-.31,0-.41.13c-.56,0-1,.51-1.8.12,1.53-1.64,3.25-3.06,4.37-5,.1,0,.2-.06.13-.19a1.63,1.63,0,0,0-.23.09c-.35,0-.64.44-1.12.09a58.23,58.23,0,0,0,3.28-6.14c.24-.6.5-.18.67.24a32.2,32.2,0,0,0,2.61,4.88c.21.35.57.68.43,1.22l-1-.3-.25-.08.13.19c.07.15.13.3.21.44.42.67,1.36.94,1.68,1.46A15.41,15.41,0,0,0,91,63c.46.48-.22,1,0,1.55-.95.07-.3.49-.14.73a10.45,10.45,0,0,0,.87,1c.45-.18.28-.84.8-.87.68,1.24,1.36,2.46,2,3.69.1.19.54.51.06.65s-.35.3-.16.55.51.31.78,0a12.56,12.56,0,0,0,1.59-2c.08-.12.33-.2.15-.37s-.3,0-.41.13c-.56,0-1,.51-1.8.13,1.52-1.66,3.26-3.06,4.37-5,.1,0,.2,0,.13-.18a1.63,1.63,0,0,0-.23.09c-.35,0-.64.43-1.12.08A59.08,59.08,0,0,0,101.26,57c.24-.6.5-.18.67.23a32.79,32.79,0,0,0,2.61,4.89c.21.35.57.67.43,1.22L104,63l-.25-.08.13.2a3.35,3.35,0,0,0,.28.53c.45.59,1.32.9,1.61,1.36a15.05,15.05,0,0,0,2.12,2.69c.47.48-.24,1,.05,1.55-1,.18-.21.63-.06.82a14.44,14.44,0,0,0,2.75,2.66c.21.16.5.37.37.71s-.4.23-.64.28-.48-.12-.66.18a20.27,20.27,0,0,0,2.25,2.1c.36.34,1.2.47,1,1.07s-1,0-1.45.25c.54.89,1.77,1,2.29,1.91-.5.2-1.06.08-1.32.59a4.05,4.05,0,0,1,.5.37c.19.2.64.22.54.58s-.56.27-.85.28c-.54,0-1.24-.29-1.58,0-1.19.86-2.13.25-3.14-.26-.23-.12-.43-.59-.69-.27s.16.55.4.71c1.91,1.22,3.87,2.38,5.73,3.66a1.72,1.72,0,0,0,2.41,0c2.45-2.09,5.17-2.85,8.29-1.64a11.65,11.65,0,0,0,1.45.3,1.26,1.26,0,0,1,.94.52c1.7,2.87,4.11,5.44,3.71,9.16,0,.08.1.18.2.34a18.4,18.4,0,0,0,1.37-1.49c.48-.66.87-.52,1.52-.19,2.68,1.32,4.41,3.2,4.16,6.39a2.25,2.25,0,0,0,.06.36c.05.64.27,1,1,.76s1,0,1.26.6c.66,1.45,1.71,2.74,1.84,4.41a1.36,1.36,0,0,0,.69,1c2.19,1.63,4.39,3.23,6.54,4.91a1.12,1.12,0,0,0,1.62,0,5.38,5.38,0,0,1,2.76-1.17,28.54,28.54,0,0,1,8.6.68c.45.09.9.22,1.29-.13,1.8-1.64,4-1.63,6.27-1.7a4,4,0,0,0,2.11-.58c3.06-1.88,6.14-3.73,9.2-5.6.23-.15.72-.3.57-.54-.47-.76.29-.8.58-1.06s.7-.4.89-.81c-.56-.22-1.1.44-1.85-.14l3-2.07c-.07,0,.12-.26-.13-.18l.14.19-.59-.12c-.34-.06-.84.23-1-.24s.39-.57.66-.8a10.41,10.41,0,0,0,2.55-2.78c-.45-.22-.88.41-1.33-.11.75-.79,1.52-1.58,2.25-2.39.23-.26.87-.57,0-.93-.24-.1,0-.36.1-.52.7-1.27,1.42-2.54,2.17-3.88l2.24,4c.09.16.27.41-.09.45-.56.07-.3.32-.14.54s.46.36.7,0c.56-.7,1.11-1.42,1.67-2.13.07-.12.32-.2.14-.36s-.3,0-.41.12c-.56,0-1.05.51-1.79.13,1.52-1.65,3.25-3.06,4.36-5,.1,0,.2,0,.13-.18a2.33,2.33,0,0,0-.23.09c-.35,0-.63.44-1.12.08A59.31,59.31,0,0,0,197.47,77c.25-.61.5-.13.67.26.47,1,1,2.07,1.57,3.26a15.37,15.37,0,0,1,1.35-1.46c.62-.53-.58-.63-.19-1.21.81-1.22,1.47-2.54,2.23-3.9l2.24,4c.08.16.28.41-.07.46-.52.07-.36.28-.17.53s.51.31.79,0a13.22,13.22,0,0,0,1.59-2c.07-.11.32-.2.14-.36s-.3,0-.4.13c-.56-.06-1.06.51-1.81.12,1.54-1.64,3.26-3.06,4.37-5,.1,0,.2-.06.13-.19a2.33,2.33,0,0,0-.23.09c-.35,0-.63.44-1.11.09a58.15,58.15,0,0,0,3.27-6.14c.24-.6.51-.17.68.24a33.57,33.57,0,0,0,2.6,4.88c.22.35.57.68.43,1.22l-1-.3-.25-.09.13.2a3.61,3.61,0,0,0,.22.44c.42.67,1.36.93,1.68,1.46a13.83,13.83,0,0,0,2.12,2.68c.2.2.48.29,0,.62-.29.23.34,1-.48,1.16a5.18,5.18,0,0,0,.5.7c.45.4.77-.06,1.08-.25,5.5-3.36,10.95-6.79,16.28-10.42.29-.2.69-.3.82-.75-1.69.37-3.2-.58-4.93-.26.24-.79.89-.84,1.15-1.23-.29-.51-.9-.31-1.35-.63.62-.85,1.8-1,2.35-1.95a5.06,5.06,0,0,1-.61,0c-.31,0-.74.2-.9-.16s.31-.48.54-.69A14.1,14.1,0,0,0,235.72,60c-.47-.18-1.13.12-1.29-.37s.45-.79.83-1.08a14.83,14.83,0,0,0,2.41-2.47c.12-.14.4-.28.16-.59-.6-.79-.59-1.37,0-2a6.11,6.11,0,0,0,1.63-2.14c.07-.18.2-.48.31-.49,1.05,0,1.28-.94,1.73-1.6l.13-.19-.25.08c-.35,0-.63.42-1.05.17a3.13,3.13,0,0,1,.69-1.4,36.65,36.65,0,0,0,2.39-4.45c.1-.21,0-.55.35-.59s.41.32.51.57a35.12,35.12,0,0,0,2.81,5.19c.13.2.43.45.09.8l-.9-.27a1.1,1.1,0,0,0-.23-.1c-.07.13,0,.16.13.19,1.11,1.92,2.85,3.33,4.37,5-.75.38-1.24-.18-1.8-.13-.1-.15-.28-.24-.41-.13s.07.25.15.36l1.51,2c.2.26.42.59.78.23s.48-.58-.18-.68c-.23,0,0-.28,0-.41.72-1.31,1.46-2.62,2.24-4,.67,1.22,1.33,2.34,1.93,3.49.3.59.6.62,1.15.29Q266.39,49,276.82,42.84c.1-.05.23-.13.12-.28s-.75,0-.92-.43c.42-.66,1.29-.76,1.66-1.45-.57-.23-1.11.44-1.85-.15l3-2.06c-.07,0,.12-.27-.13-.19l.14.19-.59-.11c-.34-.06-.84.22-1-.24s.4-.58.66-.81a10.44,10.44,0,0,0,2.57-2.8c-.46-.17-.89.42-1.35-.08.75-.8,1.52-1.59,2.25-2.4.24-.26.87-.57,0-.92-.24-.1,0-.37.09-.52.7-1.28,1.42-2.55,2.18-3.89l2.24,4c.09.17.26.41-.09.45-.57.07-.31.32-.15.54s.46.36.71.05c.56-.7,1.11-1.42,1.66-2.13.07-.11.32-.2.15-.36s-.31,0-.41.13c-.56-.06-1.05.51-1.81.12,1.54-1.65,3.26-3.06,4.38-5,.1,0,.2-.05.13-.18a1.63,1.63,0,0,0-.23.09c-.36,0-.64.44-1.12.08a59.23,59.23,0,0,0,3.28-6.14c.25-.61.5-.13.67.26.47,1.05,1,2.07,1.57,3.26.52-.56.89-1.06,1.35-1.46.63-.53-.58-.63-.19-1.21.82-1.22,1.47-2.54,2.24-3.9l2.23,4c.09.16.29.41-.07.46-.52.07-.36.29-.17.54s.51.3.79,0a12.63,12.63,0,0,0,1.59-2.05c.08-.11.32-.2.15-.36s-.31,0-.41.13c-.56-.05-1.05.51-1.8.12,1.52-1.65,3.25-3.06,4.37-5,.1,0,.2-.06.13-.19a1.63,1.63,0,0,0-.23.09c-.35,0-.64.44-1.12.09A58.15,58.15,0,0,0,306.8,7c.24-.59.51-.18.68.24a33.57,33.57,0,0,0,2.6,4.88c.22.35.58.68.44,1.22l-1-.3-.25-.08.12.19c.46.66.69,1.57,1.74,1.59.08,0,.2.15.23.26a6.9,6.9,0,0,0,2.05,2.73c.49.49-.26,1,.06,1.55-1,.18-.24.65-.07.82.38.39.58,1.25,1.42.76,3.5-2,7.38-3.54,9.58-7.32.91-1.56,2.2-2.89,3.19-4.41a2.92,2.92,0,0,1,2.53-1.43A7.74,7.74,0,0,0,334,6.46c2.61-1.58,5.29-3,7.92-4.59a16.64,16.64,0,0,0,3-1.87h.5c.14.44.57.57.9.8l9.88,7c.37.26.85.45,1,.92.54,2.38,2.5,3.71,4,5.39.86,1,1.17.9,1.88-.25.27-.45.46-1.25.79-1.31,1-.17,1.26-1,1.72-1.64l.13-.19-.25.08c-.35,0-.63.42-1.13.12.26-.46.48-.93.76-1.36a32.14,32.14,0,0,0,2.39-4.44c.1-.21,0-.54.35-.59s.41.32.51.57a34.27,34.27,0,0,0,2.82,5.19c.13.2.43.45.09.79l-.9-.26-.23-.1c-.08.13,0,.16.13.19,1.11,1.92,2.84,3.33,4.36,5-.75.38-1.24-.18-1.8-.13-.1-.15-.28-.24-.4-.13s.06.25.14.36c.42.56.81,1.14,1.27,1.65.24.27.39.9.92.6s.4-.64-.16-.82a.56.56,0,0,1,0-.22c.76-1.36,1.53-2.72,2.32-4.12L379,16.87c.11.19.41.5.16.61-.85.37-.21.67,0,.93.74.83,1.51,1.63,2.27,2.45-.54.38-.91-.13-1.36.05a9.61,9.61,0,0,0,2,2.31c.44.41,1.31.7,1.19,1.27s-1,0-1.52.36c0-.08.27-.12,0-.24l0,.24,3,2.08c-.77.55-1.31-.09-1.87.13.32.74,1.35.75,1.64,1.56-.84.43-1.84-.21-2.43.2-1.16.79-2,.11-2.93-.27-.24-.09-.39-.52-.72-.32s-.36.6-.35,1c0,.58.42.87.79,1.18,5.75,4.91,11.24,10.1,16.8,15.22a3,3,0,0,1,1.08,2.44q0,40.21,0,80.44c0,5.15,0,10.31,0,15.46,0,.86-.21,1.22-1.09,1.1a8.36,8.36,0,0,0-1.12,0Z"/></g></g></svg>