<svg preserveAspectRatio="none" xmlns="http://www.w3.org/2000/svg" viewBox="0 0 1008.93 154.12"><defs><style>.cls-1{fill:#702C2E;}</style></defs><g id="Capa_2" data-name="Capa 2"><g id="Capa_1-2" data-name="Capa 1"><g id="Capa_2-2" data-name="Capa 2"><g id="Capa_1-2-2" data-name="Capa 1-2"><path class="cls-1" d="M698.27,103.49a1.32,1.32,0,0,0,0-2.63A1.32,1.32,0,0,0,698.27,103.49Z"/><path class="cls-1" d="M786.77,90a1.32,1.32,0,0,0,0-2.63A1.32,1.32,0,0,0,786.77,90Z"/><polygon class="cls-1" points="16.48 43.59 65.34 3.15 99.97 12.11 130.75 0 213.47 21.8 223.04 59.66 16.48 43.59"/><polygon class="cls-1" points="274.97 65.81 323.13 43.77 332.75 15.61 394.31 28.78 413.55 50.24 463.86 77.36 274.97 65.81"/><polygon class="cls-1" points="475.18 78.23 484.73 46.48 538.59 36.77 619.4 46.48 646.33 78.23 621.32 113.72 475.18 78.23"/><path class="cls-1" d="M817.94,110.9a10.81,10.81,0,0,1-2.45-18.7,64,64,0,0,0,15.86-17c12.11-19,42.93-17.27,49-16.73a10.72,10.72,0,0,1,1.93.35l49.09,13.7a10.82,10.82,0,0,1,7.72,12.49l-11,56.22a10.82,10.82,0,0,1-14.66,8Z"/></g></g><polygon class="cls-1" points="1008.93 154.12 1008.93 57.93 859.88 117.57 786.77 88.71 773.3 50.24 698.27 15.61 609.78 88.71 0 41.26 0 154.12 1008.93 154.12"/></g></g></svg>