<svg xmlns="http://www.w3.org/2000/svg" viewBox="0 0 1920 508.71"><defs><style>.cls-1{fill:#41191b;}</style></defs><g id="Capa_2" data-name="Capa 2"><g id="Capa_1-2" data-name="Capa 1"><path class="cls-1" d="M1328.82,196.94c3.22,0,3.22-5,0-5s-3.22,5,0,5Z"/><path class="cls-1" d="M1497.23,171.32c3.21,0,3.22-5,0-5s-3.23,5,0,5Z"/><polygon class="cls-1" points="0 78.51 0 508.71 1920 508.71 1920 110.24 1636.35 223.73 1497.23 168.82 1471.6 95.6 1328.82 29.7 1160.41 168.82 0 78.51"/><polygon class="cls-1" points="31.36 82.95 124.34 6 190.24 23.05 248.82 0 406.24 41.48 424.45 113.54 31.36 82.95"/><polygon class="cls-1" points="523.27 125.23 614.92 83.29 633.23 29.7 750.38 54.77 786.99 95.6 882.72 147.21 523.27 125.23"/><polygon class="cls-1" points="904.27 148.88 922.45 88.45 1024.95 69.97 1178.72 88.45 1229.97 148.88 1182.38 216.41 904.27 148.88"/><path class="cls-1" d="M1562.15,194.44s41.25-11,66.87-51.25,95.19-31.65,95.19-31.65l113.44,31.65-29.24,150.1Z"/></g></g></svg>