<svg xmlns="http://www.w3.org/2000/svg" xmlns:xlink="http://www.w3.org/1999/xlink" viewBox="0 0 377.02 378.69"><defs><style>.cls-1{isolation:isolate;}.cls-2{fill:#f7ddb6;}.cls-106,.cls-2,.cls-3,.cls-37,.cls-4,.cls-5,.cls-50,.cls-6{mix-blend-mode:color-dodge;}.cls-3{fill:url(#Degradado_sin_nombre_3);}.cls-4,.cls-5,.cls-7{fill:#f7ac6a;}.cls-4{opacity:0.29;}.cls-6{fill:url(#Degradado_sin_nombre_44);}.cls-8{fill:#39355f;}.cls-9{fill:#cd8b68;}.cls-10{fill:#dfaa86;}.cls-11{fill:url(#Degradado_sin_nombre_157);}.cls-12{fill:url(#Degradado_sin_nombre_157-2);}.cls-13{fill:#ca9270;}.cls-14{fill:#e6a984;}.cls-15{fill:#813db6;}.cls-16{fill:url(#Degradado_sin_nombre_58);}.cls-17{fill:url(#Degradado_sin_nombre_12);}.cls-18{fill:#080c01;}.cls-19,.cls-44{fill:#686868;}.cls-20{fill:url(#Degradado_sin_nombre_12-2);}.cls-21{fill:url(#Degradado_sin_nombre_59);}.cls-22{fill:url(#Degradado_sin_nombre_9);}.cls-23{fill:#fff;}.cls-24{fill:#87d0fd;}.cls-25{fill:url(#Degradado_sin_nombre_9-2);}.cls-26{fill:#c3c3c3;}.cls-27{fill:url(#Degradado_sin_nombre_9-3);}.cls-28{fill:url(#Degradado_sin_nombre_10);}.cls-29{fill:#9bffd6;}.cls-30{fill:#6b5fdb;}.cls-31{fill:#941582;}.cls-32{fill:#4b108a;}.cls-33{opacity:0.6;}.cls-105,.cls-33,.cls-51,.cls-52,.cls-53{mix-blend-mode:overlay;}.cls-34{fill:url(#Degradado_sin_nombre_9-4);}.cls-35{fill:url(#Degradado_sin_nombre_2);}.cls-36,.cls-46{fill:#b1b1b2;}.cls-37{fill:url(#Degradado_sin_nombre_3-2);}.cls-38{fill:#a0b5de;}.cls-39,.cls-49{fill:#c9d9fe;}.cls-40{fill:url(#Degradado_sin_nombre_3-3);}.cls-41{fill:url(#Degradado_sin_nombre_3-4);}.cls-42{fill:url(#Degradado_sin_nombre_3-5);}.cls-43{fill:url(#Degradado_sin_nombre_2-2);}.cls-100,.cls-101,.cls-105,.cls-130,.cls-44,.cls-45,.cls-46,.cls-47,.cls-48,.cls-49,.cls-51,.cls-52,.cls-53,.cls-54,.cls-55,.cls-56,.cls-57,.cls-58,.cls-59,.cls-60,.cls-61,.cls-62,.cls-63,.cls-64,.cls-65,.cls-66,.cls-67,.cls-68,.cls-69,.cls-70,.cls-71,.cls-72,.cls-73,.cls-74,.cls-75,.cls-76,.cls-77,.cls-78,.cls-79,.cls-80,.cls-81,.cls-82,.cls-83,.cls-84,.cls-85,.cls-86,.cls-87,.cls-88,.cls-89,.cls-90,.cls-91,.cls-92,.cls-93,.cls-94,.cls-95,.cls-96,.cls-97,.cls-98,.cls-99{fill-rule:evenodd;}.cls-45{fill:#888889;}.cls-47{fill:#c7ebf3;}.cls-48{fill:url(#Degradado_sin_nombre_2-3);}.cls-51{fill:url(#Degradado_sin_nombre_8);}.cls-52{fill:url(#Degradado_sin_nombre_8-2);}.cls-53{fill:url(#Degradado_sin_nombre_8-3);}.cls-54{fill:url(#Degradado_sin_nombre_7);}.cls-55{fill:url(#Degradado_sin_nombre_7-2);}.cls-56{fill:url(#Degradado_sin_nombre_7-3);}.cls-57{fill:url(#Degradado_sin_nombre_7-4);}.cls-58{fill:url(#Degradado_sin_nombre_7-5);}.cls-59{fill:url(#Degradado_sin_nombre_7-6);}.cls-60{fill:url(#Degradado_sin_nombre_7-7);}.cls-61{fill:url(#Degradado_sin_nombre_7-8);}.cls-62{fill:url(#Degradado_sin_nombre_7-9);}.cls-63{fill:url(#Degradado_sin_nombre_7-10);}.cls-64{fill:url(#Degradado_sin_nombre_7-11);}.cls-65{fill:url(#Degradado_sin_nombre_7-12);}.cls-66{fill:url(#Degradado_sin_nombre_7-13);}.cls-67{fill:url(#Degradado_sin_nombre_7-14);}.cls-68{fill:url(#Degradado_sin_nombre_7-15);}.cls-69{fill:url(#Degradado_sin_nombre_7-16);}.cls-70{fill:url(#Degradado_sin_nombre_7-17);}.cls-71{fill:url(#Degradado_sin_nombre_7-18);}.cls-72{fill:url(#Degradado_sin_nombre_7-19);}.cls-73{fill:url(#Degradado_sin_nombre_7-20);}.cls-74{fill:url(#Degradado_sin_nombre_7-21);}.cls-75{fill:url(#Degradado_sin_nombre_7-22);}.cls-76{fill:url(#Degradado_sin_nombre_7-23);}.cls-77{fill:url(#Degradado_sin_nombre_7-24);}.cls-78{fill:url(#Degradado_sin_nombre_7-25);}.cls-79{fill:url(#Degradado_sin_nombre_7-26);}.cls-80{fill:url(#Degradado_sin_nombre_7-27);}.cls-81{fill:url(#Degradado_sin_nombre_7-28);}.cls-82{fill:url(#Degradado_sin_nombre_7-29);}.cls-83{fill:url(#Degradado_sin_nombre_7-30);}.cls-84{fill:url(#Degradado_sin_nombre_7-31);}.cls-85{fill:url(#Degradado_sin_nombre_7-32);}.cls-86{fill:url(#Degradado_sin_nombre_7-33);}.cls-87{fill:url(#Degradado_sin_nombre_7-34);}.cls-88{fill:url(#Degradado_sin_nombre_7-35);}.cls-89{fill:url(#Degradado_sin_nombre_7-36);}.cls-90{fill:url(#Degradado_sin_nombre_7-37);}.cls-91{fill:url(#Degradado_sin_nombre_7-38);}.cls-92{fill:url(#Degradado_sin_nombre_7-39);}.cls-93{fill:url(#Degradado_sin_nombre_7-40);}.cls-94{fill:url(#Degradado_sin_nombre_7-41);}.cls-95{fill:url(#Degradado_sin_nombre_7-42);}.cls-96{fill:url(#Degradado_sin_nombre_7-43);}.cls-97{fill:url(#Degradado_sin_nombre_7-44);}.cls-98{fill:url(#Degradado_sin_nombre_7-45);}.cls-99{fill:url(#Degradado_sin_nombre_7-46);}.cls-100{fill:url(#Degradado_sin_nombre_7-47);}.cls-101{fill:url(#Degradado_sin_nombre_7-48);}.cls-102{fill:url(#Degradado_sin_nombre_7-49);}.cls-103{fill:url(#Degradado_sin_nombre_7-50);}.cls-104{fill:url(#Degradado_sin_nombre_7-51);}.cls-105{fill:url(#Degradado_sin_nombre_48);}.cls-106{fill:url(#Degradado_sin_nombre_3-6);}.cls-107{fill:url(#Degradado_sin_nombre_3-7);}.cls-108{fill:url(#Degradado_sin_nombre_3-8);}.cls-109{fill:url(#Degradado_sin_nombre_3-9);}.cls-110{fill:url(#Degradado_sin_nombre_2-4);}.cls-111{fill:#4a4a67;}.cls-112{fill:url(#Degradado_sin_nombre_134);}.cls-113{fill:url(#Degradado_sin_nombre_134-2);}.cls-114{fill:#444990;}.cls-115{fill:url(#Degradado_sin_nombre_134-3);}.cls-116{fill:url(#Degradado_sin_nombre_144);}.cls-117{fill:url(#Degradado_sin_nombre_143);}.cls-118{fill:url(#Degradado_sin_nombre_134-4);}.cls-119{fill:url(#Degradado_sin_nombre_134-5);}.cls-120{fill:#5c2cb7;}.cls-121{fill:#f1c968;}.cls-122{fill:url(#Degradado_sin_nombre_138);}.cls-123{fill:url(#Degradado_sin_nombre_137);}.cls-124{fill:url(#Degradado_sin_nombre_136);}.cls-125{fill:url(#Degradado_sin_nombre_139);}.cls-126{fill:url(#Degradado_sin_nombre_134-6);}.cls-127{fill:url(#Degradado_sin_nombre_134-7);}.cls-128{fill:url(#Degradado_sin_nombre_138-2);}.cls-129{fill:url(#Degradado_sin_nombre_134-8);}.cls-130{fill:#30190a;}</style><linearGradient id="Degradado_sin_nombre_3" x1="204.96" y1="293.24" x2="25.49" y2="178.05" gradientUnits="userSpaceOnUse"><stop offset="0.07" stop-color="#87d0fd"/><stop offset="0.16" stop-color="#7fc3ec" stop-opacity="0.93"/><stop offset="0.35" stop-color="#68a1c0" stop-opacity="0.76"/><stop offset="0.61" stop-color="#456a79" stop-opacity="0.48"/><stop offset="0.92" stop-color="#141f19" stop-opacity="0.1"/><stop offset="1" stop-color="#080c01" stop-opacity="0"/></linearGradient><linearGradient id="Degradado_sin_nombre_44" x1="139.73" y1="316.49" x2="139.73" y2="165.25" gradientUnits="userSpaceOnUse"><stop offset="0" stop-color="#f7ddb6"/><stop offset="0.08" stop-color="#eed5af" stop-opacity="0.96"/><stop offset="0.22" stop-color="#d5bf9c" stop-opacity="0.86"/><stop offset="0.39" stop-color="#ac9b7d" stop-opacity="0.69"/><stop offset="0.6" stop-color="#736a52" stop-opacity="0.45"/><stop offset="0.83" stop-color="#2c2b1c" stop-opacity="0.15"/><stop offset="0.94" stop-color="#080c01" stop-opacity="0"/></linearGradient><linearGradient id="Degradado_sin_nombre_157" x1="253.94" y1="235.85" x2="229.16" y2="235.85" gradientUnits="userSpaceOnUse"><stop offset="0.07" stop-color="#7abb93"/><stop offset="0.33" stop-color="#71aa95"/><stop offset="0.83" stop-color="#597f9a"/><stop offset="1" stop-color="#506e9c"/></linearGradient><linearGradient id="Degradado_sin_nombre_157-2" x1="253.94" y1="219.22" x2="229.16" y2="219.22" xlink:href="#Degradado_sin_nombre_157"/><linearGradient id="Degradado_sin_nombre_58" x1="146.38" y1="187.58" x2="122.14" y2="143.56" gradientUnits="userSpaceOnUse"><stop offset="0" stop-color="#fff"/><stop offset="0" stop-color="#fefefd"/><stop offset="0.19" stop-color="#b9b9b8"/><stop offset="0.34" stop-color="#878786"/><stop offset="0.45" stop-color="#686867"/><stop offset="0.52" stop-color="#5c5c5b"/></linearGradient><linearGradient id="Degradado_sin_nombre_12" x1="169.11" y1="190.27" x2="123.74" y2="176.63" gradientUnits="userSpaceOnUse"><stop offset="0" stop-color="#7b7b7a"/><stop offset="0.72" stop-color="#1f211d"/><stop offset="1"/></linearGradient><linearGradient id="Degradado_sin_nombre_12-2" x1="180.57" y1="-12.62" x2="27.35" y2="177.95" xlink:href="#Degradado_sin_nombre_12"/><linearGradient id="Degradado_sin_nombre_59" x1="202.82" y1="29.75" x2="52.71" y2="199.68" gradientUnits="userSpaceOnUse"><stop offset="0" stop-color="#b1b1b2"/><stop offset="0.33" stop-color="#b0b1b5"/><stop offset="0.6" stop-color="#acb2bf"/><stop offset="0.85" stop-color="#a5b4d1"/><stop offset="1" stop-color="#a0b5de"/></linearGradient><linearGradient id="Degradado_sin_nombre_9" x1="201.53" y1="18.56" x2="50.11" y2="112.62" gradientUnits="userSpaceOnUse"><stop offset="0" stop-color="#a0eafe"/><stop offset="0.2" stop-color="#9ee7fd"/><stop offset="0.36" stop-color="#98ddf9"/><stop offset="0.51" stop-color="#8dcbf2"/><stop offset="0.65" stop-color="#7eb3e9"/><stop offset="0.79" stop-color="#6b94dd"/><stop offset="0.92" stop-color="#546ece"/><stop offset="1" stop-color="#4556c5"/></linearGradient><linearGradient id="Degradado_sin_nombre_9-2" x1="105.86" y1="95.11" x2="67.11" y2="139.22" xlink:href="#Degradado_sin_nombre_9"/><linearGradient id="Degradado_sin_nombre_9-3" x1="152.08" y1="67.77" x2="112.62" y2="112.64" xlink:href="#Degradado_sin_nombre_9"/><linearGradient id="Degradado_sin_nombre_10" x1="175.02" y1="93.92" x2="64.71" y2="196.5" gradientUnits="userSpaceOnUse"><stop offset="0" stop-color="#fff"/><stop offset="0.3" stop-color="#fcfdff"/><stop offset="0.55" stop-color="#f2f6ff"/><stop offset="0.78" stop-color="#e0e9fe"/><stop offset="1" stop-color="#c9d9fe"/></linearGradient><linearGradient id="Degradado_sin_nombre_9-4" x1="212.4" y1="47.09" x2="164.73" y2="90" xlink:href="#Degradado_sin_nombre_9"/><linearGradient id="Degradado_sin_nombre_2" x1="164.54" y1="91.15" x2="187.57" y2="41.46" gradientUnits="userSpaceOnUse"><stop offset="0" stop-color="#17193c"/><stop offset="0.53" stop-color="#222560"/><stop offset="0.97" stop-color="#4556c5"/></linearGradient><linearGradient id="Degradado_sin_nombre_3-2" x1="331.64" y1="317.2" x2="331.64" y2="205.23" xlink:href="#Degradado_sin_nombre_3"/><linearGradient id="Degradado_sin_nombre_3-3" x1="349.72" y1="289.98" x2="363.13" y2="307.53" xlink:href="#Degradado_sin_nombre_3"/><linearGradient id="Degradado_sin_nombre_3-4" x1="356.59" y1="284.74" x2="370" y2="302.28" xlink:href="#Degradado_sin_nombre_3"/><linearGradient id="Degradado_sin_nombre_3-5" x1="363.45" y1="279.49" x2="376.86" y2="297.04" xlink:href="#Degradado_sin_nombre_3"/><linearGradient id="Degradado_sin_nombre_2-2" x1="334.71" y1="213.6" x2="352.34" y2="213.6" xlink:href="#Degradado_sin_nombre_2"/><linearGradient id="Degradado_sin_nombre_2-3" x1="277.98" y1="294.75" x2="313.51" y2="294.75" xlink:href="#Degradado_sin_nombre_2"/><linearGradient id="Degradado_sin_nombre_8" x1="260.12" y1="295.08" x2="289.3" y2="295.08" gradientTransform="matrix(0.87, -0.5, -0.5, 1.44, 206.31, 3.78)" gradientUnits="userSpaceOnUse"><stop offset="0" stop-color="#fff" stop-opacity="0"/><stop offset="0.4" stop-color="#faeb37"/><stop offset="0.87" stop-color="#fff" stop-opacity="0"/></linearGradient><linearGradient id="Degradado_sin_nombre_8-2" x1="261.33" y1="297.17" x2="290.51" y2="297.17" xlink:href="#Degradado_sin_nombre_8"/><linearGradient id="Degradado_sin_nombre_8-3" x1="262.54" y1="299.26" x2="291.71" y2="299.26" xlink:href="#Degradado_sin_nombre_8"/><linearGradient id="Degradado_sin_nombre_7" x1="329.73" y1="53.62" x2="213.34" y2="381.99" gradientUnits="userSpaceOnUse"><stop offset="0" stop-color="#fff"/><stop offset="0.1" stop-color="#efefee" stop-opacity="0.93"/><stop offset="0.3" stop-color="#c4c5c2" stop-opacity="0.76"/><stop offset="0.57" stop-color="#7f817b" stop-opacity="0.48"/><stop offset="0.91" stop-color="#21251b" stop-opacity="0.1"/><stop offset="1" stop-color="#080c01" stop-opacity="0"/></linearGradient><linearGradient id="Degradado_sin_nombre_7-2" x1="301.65" y1="43.66" x2="185.26" y2="372.04" xlink:href="#Degradado_sin_nombre_7"/><linearGradient id="Degradado_sin_nombre_7-3" x1="302.51" y1="43.97" x2="186.12" y2="372.34" xlink:href="#Degradado_sin_nombre_7"/><linearGradient id="Degradado_sin_nombre_7-4" x1="313.41" y1="47.83" x2="197.02" y2="376.21" xlink:href="#Degradado_sin_nombre_7"/><linearGradient id="Degradado_sin_nombre_7-5" x1="327.15" y1="52.7" x2="210.77" y2="381.08" xlink:href="#Degradado_sin_nombre_7"/><linearGradient id="Degradado_sin_nombre_7-6" x1="318.66" y1="49.69" x2="202.27" y2="378.07" xlink:href="#Degradado_sin_nombre_7"/><linearGradient id="Degradado_sin_nombre_7-7" x1="317.08" y1="49.13" x2="200.7" y2="377.51" xlink:href="#Degradado_sin_nombre_7"/><linearGradient id="Degradado_sin_nombre_7-8" x1="331.72" y1="54.32" x2="215.33" y2="382.7" xlink:href="#Degradado_sin_nombre_7"/><linearGradient id="Degradado_sin_nombre_7-9" x1="305.37" y1="44.98" x2="188.99" y2="373.36" xlink:href="#Degradado_sin_nombre_7"/><linearGradient id="Degradado_sin_nombre_7-10" x1="306.23" y1="45.29" x2="189.84" y2="373.66" xlink:href="#Degradado_sin_nombre_7"/><linearGradient id="Degradado_sin_nombre_7-11" x1="307.44" y1="45.72" x2="191.05" y2="374.09" xlink:href="#Degradado_sin_nombre_7"/><linearGradient id="Degradado_sin_nombre_7-12" x1="317.13" y1="49.15" x2="200.75" y2="377.53" xlink:href="#Degradado_sin_nombre_7"/><linearGradient id="Degradado_sin_nombre_7-13" x1="332.49" y1="54.6" x2="216.11" y2="382.97" xlink:href="#Degradado_sin_nombre_7"/><linearGradient id="Degradado_sin_nombre_7-14" x1="323.61" y1="51.45" x2="207.22" y2="379.82" xlink:href="#Degradado_sin_nombre_7"/><linearGradient id="Degradado_sin_nombre_7-15" x1="320.81" y1="50.45" x2="204.42" y2="378.83" xlink:href="#Degradado_sin_nombre_7"/><linearGradient id="Degradado_sin_nombre_7-16" x1="322.94" y1="51.21" x2="206.55" y2="379.58" xlink:href="#Degradado_sin_nombre_7"/><linearGradient id="Degradado_sin_nombre_7-17" x1="335.44" y1="55.64" x2="219.05" y2="384.02" xlink:href="#Degradado_sin_nombre_7"/><linearGradient id="Degradado_sin_nombre_7-18" x1="309.96" y1="46.61" x2="193.58" y2="374.99" xlink:href="#Degradado_sin_nombre_7"/><linearGradient id="Degradado_sin_nombre_7-19" x1="310.82" y1="46.91" x2="194.43" y2="375.29" xlink:href="#Degradado_sin_nombre_7"/><linearGradient id="Degradado_sin_nombre_7-20" x1="321.72" y1="50.78" x2="205.33" y2="379.15" xlink:href="#Degradado_sin_nombre_7"/><linearGradient id="Degradado_sin_nombre_7-21" x1="335.47" y1="55.65" x2="219.08" y2="384.02" xlink:href="#Degradado_sin_nombre_7"/><linearGradient id="Degradado_sin_nombre_7-22" x1="326.97" y1="52.64" x2="210.58" y2="381.01" xlink:href="#Degradado_sin_nombre_7"/><linearGradient id="Degradado_sin_nombre_7-23" x1="325.4" y1="52.08" x2="209.01" y2="380.46" xlink:href="#Degradado_sin_nombre_7"/><linearGradient id="Degradado_sin_nombre_7-24" x1="340.03" y1="57.27" x2="223.64" y2="385.64" xlink:href="#Degradado_sin_nombre_7"/><linearGradient id="Degradado_sin_nombre_7-25" x1="313.69" y1="47.93" x2="197.3" y2="376.31" xlink:href="#Degradado_sin_nombre_7"/><linearGradient id="Degradado_sin_nombre_7-26" x1="314.54" y1="48.23" x2="198.16" y2="376.61" xlink:href="#Degradado_sin_nombre_7"/><linearGradient id="Degradado_sin_nombre_7-27" x1="315.75" y1="48.66" x2="199.37" y2="377.04" xlink:href="#Degradado_sin_nombre_7"/><linearGradient id="Degradado_sin_nombre_7-28" x1="323.35" y1="51.35" x2="206.96" y2="379.73" xlink:href="#Degradado_sin_nombre_7"/><linearGradient id="Degradado_sin_nombre_7-29" x1="339.09" y1="56.93" x2="222.7" y2="385.31" xlink:href="#Degradado_sin_nombre_7"/><linearGradient id="Degradado_sin_nombre_7-30" x1="331.92" y1="54.39" x2="215.53" y2="382.77" xlink:href="#Degradado_sin_nombre_7"/><linearGradient id="Degradado_sin_nombre_7-31" x1="325.82" y1="52.23" x2="209.44" y2="380.6" xlink:href="#Degradado_sin_nombre_7"/><linearGradient id="Degradado_sin_nombre_7-32" x1="333.89" y1="55.09" x2="217.51" y2="383.47" xlink:href="#Degradado_sin_nombre_7"/><linearGradient id="Degradado_sin_nombre_7-33" x1="340.79" y1="57.53" x2="224.4" y2="385.91" xlink:href="#Degradado_sin_nombre_7"/><linearGradient id="Degradado_sin_nombre_7-34" x1="318.27" y1="49.56" x2="201.89" y2="377.93" xlink:href="#Degradado_sin_nombre_7"/><linearGradient id="Degradado_sin_nombre_7-35" x1="319.13" y1="49.86" x2="202.74" y2="378.24" xlink:href="#Degradado_sin_nombre_7"/><linearGradient id="Degradado_sin_nombre_7-36" x1="330.03" y1="53.72" x2="213.65" y2="382.1" xlink:href="#Degradado_sin_nombre_7"/><linearGradient id="Degradado_sin_nombre_7-37" x1="345.27" y1="59.13" x2="228.89" y2="387.5" xlink:href="#Degradado_sin_nombre_7"/><linearGradient id="Degradado_sin_nombre_7-38" x1="332.82" y1="54.71" x2="216.43" y2="383.08" xlink:href="#Degradado_sin_nombre_7"/><linearGradient id="Degradado_sin_nombre_7-39" x1="329.24" y1="53.44" x2="212.85" y2="381.82" xlink:href="#Degradado_sin_nombre_7"/><linearGradient id="Degradado_sin_nombre_7-40" x1="343.62" y1="58.54" x2="227.23" y2="386.91" xlink:href="#Degradado_sin_nombre_7"/><linearGradient id="Degradado_sin_nombre_7-41" x1="322" y1="50.87" x2="205.61" y2="379.25" xlink:href="#Degradado_sin_nombre_7"/><linearGradient id="Degradado_sin_nombre_7-42" x1="322.85" y1="51.18" x2="206.47" y2="379.55" xlink:href="#Degradado_sin_nombre_7"/><linearGradient id="Degradado_sin_nombre_7-43" x1="333.76" y1="55.04" x2="217.37" y2="383.42" xlink:href="#Degradado_sin_nombre_7"/><linearGradient id="Degradado_sin_nombre_7-44" x1="349.12" y1="60.49" x2="232.73" y2="388.86" xlink:href="#Degradado_sin_nombre_7"/><linearGradient id="Degradado_sin_nombre_7-45" x1="340.23" y1="57.34" x2="223.84" y2="385.71" xlink:href="#Degradado_sin_nombre_7"/><linearGradient id="Degradado_sin_nombre_7-46" x1="337.43" y1="56.35" x2="221.04" y2="384.72" xlink:href="#Degradado_sin_nombre_7"/><linearGradient id="Degradado_sin_nombre_7-47" x1="339.56" y1="57.1" x2="223.17" y2="385.47" xlink:href="#Degradado_sin_nombre_7"/><linearGradient id="Degradado_sin_nombre_7-48" x1="352.07" y1="61.53" x2="235.68" y2="389.91" xlink:href="#Degradado_sin_nombre_7"/><linearGradient id="Degradado_sin_nombre_7-49" x1="325.96" y1="41.14" x2="209.57" y2="369.52" xlink:href="#Degradado_sin_nombre_7"/><linearGradient id="Degradado_sin_nombre_7-50" x1="324.64" y1="40.68" x2="208.25" y2="369.05" xlink:href="#Degradado_sin_nombre_7"/><linearGradient id="Degradado_sin_nombre_7-51" x1="327.32" y1="41.63" x2="210.93" y2="370" xlink:href="#Degradado_sin_nombre_7"/><linearGradient id="Degradado_sin_nombre_48" x1="267.5" y1="109.67" x2="296.94" y2="297.74" gradientUnits="userSpaceOnUse"><stop offset="0" stop-color="#fff" stop-opacity="0"/><stop offset="0.4" stop-color="#f7ac6a"/><stop offset="1" stop-color="#fff" stop-opacity="0"/></linearGradient><linearGradient id="Degradado_sin_nombre_3-6" x1="197.83" y1="393.89" x2="197.83" y2="281.92" xlink:href="#Degradado_sin_nombre_3"/><linearGradient id="Degradado_sin_nombre_3-7" x1="214.56" y1="365.14" x2="227.97" y2="382.69" xlink:href="#Degradado_sin_nombre_3"/><linearGradient id="Degradado_sin_nombre_3-8" x1="221.43" y1="359.9" x2="234.84" y2="377.44" xlink:href="#Degradado_sin_nombre_3"/><linearGradient id="Degradado_sin_nombre_3-9" x1="228.29" y1="354.65" x2="241.71" y2="372.2" xlink:href="#Degradado_sin_nombre_3"/><linearGradient id="Degradado_sin_nombre_2-4" x1="201.04" y1="289.65" x2="218.67" y2="289.65" xlink:href="#Degradado_sin_nombre_2"/><linearGradient id="Degradado_sin_nombre_134" x1="172.05" y1="228.33" x2="161.29" y2="203.56" gradientUnits="userSpaceOnUse"><stop offset="0.07" stop-color="#edc3b6"/><stop offset="0.32" stop-color="#e6b7a5"/><stop offset="0.82" stop-color="#d4987a"/><stop offset="1" stop-color="#cd8b68"/></linearGradient><linearGradient id="Degradado_sin_nombre_134-2" x1="162.39" y1="233.72" x2="153.75" y2="215.48" xlink:href="#Degradado_sin_nombre_134"/><linearGradient id="Degradado_sin_nombre_134-3" x1="165.49" y1="203.12" x2="154.74" y2="177.77" xlink:href="#Degradado_sin_nombre_134"/><linearGradient id="Degradado_sin_nombre_144" x1="167.15" y1="208.92" x2="139.81" y2="204.59" gradientUnits="userSpaceOnUse"><stop offset="0.07" stop-color="#a0eafe"/><stop offset="0.22" stop-color="#96d9f8"/><stop offset="0.51" stop-color="#7bade7"/><stop offset="0.91" stop-color="#4f67cc"/><stop offset="1" stop-color="#4556c5"/></linearGradient><linearGradient id="Degradado_sin_nombre_143" x1="156.97" y1="203.38" x2="139.59" y2="181.72" gradientUnits="userSpaceOnUse"><stop offset="0.07" stop-color="#fefac1"/><stop offset="0.25" stop-color="#fbf2b0"/><stop offset="0.62" stop-color="#f2de84"/><stop offset="1" stop-color="#e7c650"/></linearGradient><linearGradient id="Degradado_sin_nombre_134-4" x1="146.71" y1="184.92" x2="128.09" y2="208.35" xlink:href="#Degradado_sin_nombre_134"/><linearGradient id="Degradado_sin_nombre_134-5" x1="157.25" y1="168.95" x2="140.17" y2="161.47" xlink:href="#Degradado_sin_nombre_134"/><linearGradient id="Degradado_sin_nombre_138" x1="198.65" y1="82.51" x2="188.79" y2="73.29" gradientUnits="userSpaceOnUse"><stop offset="0.07" stop-color="#7549dd"/><stop offset="0.28" stop-color="#6a3ccc"/><stop offset="0.69" stop-color="#4e1ca1"/><stop offset="1" stop-color="#36007b"/></linearGradient><linearGradient id="Degradado_sin_nombre_137" x1="181.34" y1="133.27" x2="181.34" y2="107.9" gradientUnits="userSpaceOnUse"><stop offset="0.07" stop-color="#73a1f9"/><stop offset="0.23" stop-color="#6b94e8"/><stop offset="0.55" stop-color="#5571bc"/><stop offset="0.99" stop-color="#323b76"/><stop offset="1" stop-color="#313974"/></linearGradient><linearGradient id="Degradado_sin_nombre_136" x1="190.69" y1="126.5" x2="190.69" y2="99.17" gradientUnits="userSpaceOnUse"><stop offset="0.07" stop-color="#4556c5"/><stop offset="0.27" stop-color="#3f4eb4"/><stop offset="0.67" stop-color="#303989"/><stop offset="1" stop-color="#222560"/></linearGradient><linearGradient id="Degradado_sin_nombre_139" x1="194.78" y1="101.79" x2="177.38" y2="79.35" gradientUnits="userSpaceOnUse"><stop offset="0.07" stop-color="#7549dd"/><stop offset="0.53" stop-color="#6a3ccc"/><stop offset="1" stop-color="#5c2cb7"/></linearGradient><linearGradient id="Degradado_sin_nombre_134-6" x1="189.05" y1="63.56" x2="170.18" y2="53.92" xlink:href="#Degradado_sin_nombre_134"/><linearGradient id="Degradado_sin_nombre_134-7" x1="176.88" y1="98.21" x2="176.88" y2="80.59" xlink:href="#Degradado_sin_nombre_134"/><linearGradient id="Degradado_sin_nombre_138-2" x1="184.62" y1="87.83" x2="174.13" y2="81.96" xlink:href="#Degradado_sin_nombre_138"/><linearGradient id="Degradado_sin_nombre_134-8" x1="180.53" y1="96.33" x2="163" y2="91.21" xlink:href="#Degradado_sin_nombre_134"/></defs><g class="cls-1"><g id="Capa_2" data-name="Capa 2"><g id="OBJECTS"><polygon class="cls-2" points="13.53 286.36 13.53 163.41 20.45 159.42 10.22 144.88 0 171.23 6.92 167.23 6.92 290.18 94.43 341.37 102.46 337.16 13.53 286.36"/><polygon class="cls-2" points="32.62 275.44 32.62 195.71 37.1 193.12 30.47 183.69 23.84 200.78 28.33 198.19 28.33 277.92 85.08 311.11 90.29 308.38 32.62 275.44"/><path class="cls-2" d="M366.8,34,356.57,48.58l6.92,4V175.51l-45,25.69v8.3l51.57-30.17V56.39l6.92,4Z"/><path class="cls-2" d="M346.55,72.85l-6.63,9.43,4.48,2.59V164.6l-25.87,14.78v5.34l30.16-17.65V87.34l4.49,2.59Z"/><path class="cls-3" d="M140.26,302A28.87,28.87,0,0,1,126,298.38L66.92,264.26c-5.46-3.15-8.59-8-8.59-13.19,0-4.84,2.67-9.16,7.33-11.85l61.61-35.57a23.9,23.9,0,0,1,11.93-2.91,28.79,28.79,0,0,1,14.26,3.64l59.09,34.11c5.46,3.15,8.59,8,8.59,13.19,0,4.85-2.67,9.17-7.33,11.86L152.2,299.11A23.91,23.91,0,0,1,140.26,302ZM139.2,201.7a23,23,0,0,0-11.45,2.77L66.14,240c-4.36,2.52-6.86,6.54-6.86,11,0,4.88,3,9.39,8.12,12.37l59.08,34.11a28,28,0,0,0,13.78,3.5,23,23,0,0,0,11.46-2.77l61.61-35.57c4.36-2.51,6.85-6.53,6.85-11,0-4.88-3-9.39-8.11-12.37L153,205.2A28,28,0,0,0,139.2,201.7Z"/><path class="cls-4" d="M140.26,298.82a25.62,25.62,0,0,1-12.66-3.2L68.51,261.51c-4.45-2.57-7-6.37-7-10.44,0-3.68,2.09-7,5.74-9.1l61.61-35.57a20.71,20.71,0,0,1,10.34-2.47,25.76,25.76,0,0,1,12.67,3.2L211,241.24c4.44,2.57,7,6.38,7,10.44,0,3.68-2.1,7-5.74,9.1l-61.61,35.57A20.75,20.75,0,0,1,140.26,298.82Z"/><path class="cls-5" d="M67.25,251.07l61.61-35.57A20.71,20.71,0,0,1,139.2,213a25.76,25.76,0,0,1,12.67,3.2L211,250.34a14.75,14.75,0,0,1,5.85,5.83,9.6,9.6,0,0,0,1.15-4.49c0-4.06-2.56-7.87-7-10.44l-59.09-34.11a25.76,25.76,0,0,0-12.67-3.2,20.71,20.71,0,0,0-10.34,2.47L67.25,242c-3.65,2.11-5.74,5.42-5.74,9.1a10,10,0,0,0,1.15,4.61A11.8,11.8,0,0,1,67.25,251.07Z"/><path class="cls-6" d="M212.46,249.86V176h0a5.6,5.6,0,0,1-3,3.59L147.9,215.19c-4.49,2.59-12.41,2.26-17.6-.73L71.22,180.34c-2.47-1.42-3.89-3.21-4.21-5v73.84c-.46,2.23,1,4.7,4.21,6.57l59.08,34.11c5.19,3,13.11,3.32,17.6.73l61.61-35.57C211.86,253.69,212.81,251.79,212.46,249.86Z"/><path class="cls-7" d="M209.51,179.61,147.9,215.19c-4.49,2.59-12.41,2.26-17.6-.73L71.22,180.34c-5.19-3-5.76-7.56-1.26-10.16l61.61-35.57c4.49-2.59,12.41-2.26,17.6.73l59.08,34.11C213.44,172.45,214,177,209.51,179.61Z"/><path class="cls-5" d="M140.37,282.47a1,1,0,0,1-1-1V225.13a1,1,0,0,1,1.91,0v56.39A1,1,0,0,1,140.37,282.47Z"/><path class="cls-5" d="M68.88,274.92a6.42,6.42,0,0,0-5.85,0c-1.62.93-1.62,2.44,0,3.37a6.42,6.42,0,0,0,5.85,0C70.49,277.36,70.49,275.85,68.88,274.92Zm12.17,7a6.48,6.48,0,0,0-5.85,0c-1.62.94-1.62,2.45,0,3.38a6.48,6.48,0,0,0,5.85,0C82.66,284.39,82.66,282.88,81.05,281.94ZM56.71,267.89a6.48,6.48,0,0,0-5.85,0c-1.62.93-1.62,2.45,0,3.38a6.48,6.48,0,0,0,5.85,0C58.32,270.34,58.32,268.82,56.71,267.89ZM117.56,303a6.48,6.48,0,0,0-5.85,0c-1.62.93-1.62,2.45,0,3.38a6.48,6.48,0,0,0,5.85,0C119.17,305.47,119.17,304,117.56,303ZM93.22,289a6.48,6.48,0,0,0-5.85,0c-1.62.93-1.62,2.44,0,3.38a6.48,6.48,0,0,0,5.85,0C94.83,291.41,94.83,289.9,93.22,289Zm12.17,7a6.42,6.42,0,0,0-5.85,0c-1.62.93-1.62,2.44,0,3.37a6.42,6.42,0,0,0,5.85,0C107,298.44,107,296.93,105.39,296Z"/><path class="cls-5" d="M184.3,209.42a6.48,6.48,0,0,0-5.85,0c-1.61.94-1.61,2.45,0,3.38a6.48,6.48,0,0,0,5.85,0C185.92,211.87,185.92,210.36,184.3,209.42Zm12.17,7a6.48,6.48,0,0,0-5.85,0c-1.61.93-1.61,2.45,0,3.38a6.48,6.48,0,0,0,5.85,0C198.09,218.9,198.09,217.38,196.47,216.45Zm-24.34-14a6.48,6.48,0,0,0-5.85,0c-1.61.93-1.61,2.44,0,3.38a6.48,6.48,0,0,0,5.85,0C173.75,204.84,173.75,203.33,172.13,202.4ZM233,237.53a6.48,6.48,0,0,0-5.85,0c-1.61.93-1.61,2.44,0,3.38a6.48,6.48,0,0,0,5.85,0C234.6,240,234.6,238.46,233,237.53Zm-24.34-14.05a6.42,6.42,0,0,0-5.85,0c-1.61.93-1.61,2.44,0,3.37a6.42,6.42,0,0,0,5.85,0C210.26,225.92,210.26,224.41,208.64,223.48Zm12.17,7a6.48,6.48,0,0,0-5.85,0c-1.61.94-1.61,2.45,0,3.38a6.48,6.48,0,0,0,5.85,0C222.43,233,222.43,231.44,220.81,230.5Z"/><path d="M222.19,252.46c-.33.15-.46.56-.49,1.13,0,.17,1.7-1,1.64-.4,0,.17-1.25,8.47,1.39,11.21a.78.78,0,0,0,1,.09l.72-.4c.84-.42,1.4-2.34,2.15-5.19.84-3.15,1.34-5.14-2.13-7.19-1-.58-1.56-.72-1.88-.54Z"/><path class="cls-8" d="M228.57,258.9c-1,3.8-1.66,5.94-3.1,5.09s-1.76-4-1.27-7.67c.43-3.23-1.22-6.65,2.24-4.61S229.41,255.75,228.57,258.9Z"/><path class="cls-9" d="M250.92,234.58l-7.12,2.6-2.89,3.28a30.55,30.55,0,0,0-9.15,6.39s-1.53,2.24-6.59,4.83c0,0,0,3.54,3.15,4.11l20.28-11.68a5.14,5.14,0,0,0,2.54-3.89A22.92,22.92,0,0,0,250.92,234.58Z"/><path d="M236,270.42c0,.37.25.68.74,1,.14.09,0-2,.46-1.63.14.1,6.75,5.25,10.45,4.3a.77.77,0,0,0,.55-.79v-.83c.05-.94-1.34-2.37-3.46-4.43-2.33-2.27-3.82-3.69-7.3-1.68-1,.58-1.4,1-1.41,1.38Z"/><path class="cls-8" d="M244.7,268c2.82,2.75,4.35,4.37,2.91,5.2s-4.34-.42-7.31-2.66c-2.6-2-6.39-2.21-2.9-4.22S242.37,265.76,244.7,268Z"/><path class="cls-10" d="M241.87,266.72l-.21-25.35-6.87,2.23-.07,4.62a30.49,30.49,0,0,0,1.06,11.11s1.19,2.44,1,8.12C236.74,267.45,239.81,269.2,241.87,266.72Z"/><path class="cls-9" d="M260.61,231.21h0a2.75,2.75,0,0,1-3.63-1.37l-10.88-24a2.76,2.76,0,0,1,1.37-3.64h0a2.75,2.75,0,0,1,3.63,1.37l10.88,24A2.75,2.75,0,0,1,260.61,231.21Z"/><path class="cls-11" d="M230.32,235.46v9.36s11,3.7,21.28-9.36V226.4Z"/><path class="cls-12" d="M235.29,238.36a.8.8,0,0,0,.35.11c1.84.15,8.45-1.29,15.06-8.74a3.46,3.46,0,0,0,.9-2.15V206.44a3.47,3.47,0,0,0-1.49-3.23l-5-2.9a3.46,3.46,0,0,0-3.54.33l-6.78,3.91a11,11,0,0,0-5,8.62v21.27a1.08,1.08,0,0,0,.48,1Z"/><path class="cls-13" d="M237.22,205.86a1.73,1.73,0,0,0,1,1.46,5.49,5.49,0,0,0,5,0,1.73,1.73,0,0,0,1-1.46v-4.6a1.73,1.73,0,0,0-1-1.46,5.49,5.49,0,0,0-5,0,1.73,1.73,0,0,0-1,1.46Z"/><path class="cls-14" d="M218.51,236.12h0a2.76,2.76,0,0,1-1.21-3.69l11.95-23.69a2.74,2.74,0,0,1,3.69-1.21h0a2.75,2.75,0,0,1,1.21,3.69l-12,23.68A2.76,2.76,0,0,1,218.51,236.12Z"/><path class="cls-15" d="M249.64,191.28l3.46,13.45a1.57,1.57,0,0,1-2.12,1.84l-8-3.32a1.57,1.57,0,0,1-.93-1.75l2.61-13.23a1.57,1.57,0,0,1,2.88-.52l1.9,3.1A1.63,1.63,0,0,1,249.64,191.28Z"/><path class="cls-14" d="M237.5,199.33c0,1.15-.81,1.62-1.8,1a4,4,0,0,1-1.81-3.13c0-1.15.81-1.61,1.81-1A4,4,0,0,1,237.5,199.33Z"/><circle class="cls-14" cx="240.68" cy="193.84" r="9.65"/><path class="cls-15" d="M231.29,195.12s8.16,4.48,12.14-7.16c0,0,2.12,4.92,7.43,3.83,0,0,0-7.65-7.9-9.14C243,182.65,229,181.26,231.29,195.12Z"/><path class="cls-15" d="M235.79,195.51,239.25,209a1.57,1.57,0,0,1-2.12,1.84l-8-3.32a1.56,1.56,0,0,1-.94-1.75l2.61-13.23a1.57,1.57,0,0,1,2.88-.52l1.9,3.1A1.63,1.63,0,0,1,235.79,195.51Z"/><path class="cls-16" d="M114.47,166.54l-5.14,16.14a3,3,0,0,0,1.3,3.43l16,9.55a3,3,0,0,0,3,0l40.53-23.3a2.94,2.94,0,0,0-.05-5.14L155,159a3,3,0,0,1-1.22-1.26l-4.37-8.69a3,3,0,0,0-4.11-1.23l-29.5,17A2.94,2.94,0,0,0,114.47,166.54Z"/><path class="cls-17" d="M170.09,172.38l-40.53,23.3a3,3,0,0,1-3,0l-16-9.55a2.88,2.88,0,0,1-1.27-1.59l0,.08a2.94,2.94,0,0,0,1.3,3.42l16,9.55a2.94,2.94,0,0,0,3,0l40.53-23.31a2.91,2.91,0,0,0,1.3-3.51A2.81,2.81,0,0,1,170.09,172.38Z"/><path class="cls-18" d="M201.8,118.86,61,200.14c-3.64,2.09-6.62-.15-6.62-5V96.61c0-4.85,3-10.53,6.62-12.63L201.8,2.7c3.64-2.1,6.62.15,6.62,5v98.52C208.42,111.07,205.44,116.76,201.8,118.86Z"/><path class="cls-19" d="M57.77,193.49V94.39c0-2.57,1.56-5.56,3.49-6.67l140.31-81c1.93-1.11,3.49.07,3.49,2.64v99.1a8.37,8.37,0,0,1-3.49,6.67l-140.31,81C59.33,197.24,57.77,196.06,57.77,193.49Z"/><path class="cls-20" d="M202.68.4a4.25,4.25,0,0,0-4.23.39L57.67,82.06c-3.63,2.1-6.61,7.79-6.61,12.64v98.52c0,2.74.95,4.64,2.42,5.41l3.32,1.9c-1.45-.78-2.39-2.68-2.39-5.39V96.61c0-4.85,3-10.53,6.62-12.63L201.8,2.7A4.28,4.28,0,0,1,206,2.29Z"/><path class="cls-21" d="M61.81,183.54c0,4.51,3.2,6.36,7.11,4.1l125-72.16A15.78,15.78,0,0,0,201,103.17V32.47L61.81,112.83Z"/><path class="cls-22" d="M193.91,15.19l-125,72.17a15.74,15.74,0,0,0-7.11,12.3v13.17L201,32.47V19.3C201,14.78,197.82,12.94,193.91,15.19Z"/><path class="cls-23" d="M154.85,52.51l-82,47.35c-1.62.94-2.94,0-2.94-2.21h0A7,7,0,0,1,72.83,92l82-47.36c1.62-.93,2.93.06,2.93,2.22h0A7,7,0,0,1,154.85,52.51Z"/><polygon class="cls-24" points="190.13 38.75 172.37 49.01 172.37 27.63 190.13 17.38 190.13 38.75"/><path class="cls-25" d="M103,121.73,69.82,140.88c-2,1.14-3.57-.07-3.57-2.7V119.59c0-2.63,1.6-5.69,3.57-6.82L103,93.61c2-1.14,3.57.07,3.57,2.7V114.9C106.57,117.53,105,120.59,103,121.73Z"/><polygon class="cls-26" points="104.49 125.62 68.33 146.5 68.33 144.82 104.49 123.94 104.49 125.62"/><polygon class="cls-26" points="104.49 128.49 68.33 149.37 68.33 147.69 104.49 126.81 104.49 128.49"/><polygon class="cls-26" points="104.49 131.36 68.33 152.24 68.33 150.56 104.49 129.68 104.49 131.36"/><path class="cls-27" d="M148,95.74,114.83,114.9c-2,1.13-3.57-.07-3.57-2.7V93.6c0-2.63,1.6-5.68,3.57-6.82L148,67.63c2-1.14,3.57.07,3.57,2.7V88.92C151.57,91.55,150,94.6,148,95.74Z"/><polygon class="cls-26" points="149.5 99.63 113.33 120.51 113.33 118.83 149.5 97.95 149.5 99.63"/><polygon class="cls-26" points="139.5 108.28 113.33 123.39 113.33 121.7 139.5 106.6 139.5 108.28"/><polygon class="cls-26" points="136.02 113.16 113.33 126.26 113.33 124.58 136.02 111.48 136.02 113.16"/><polygon class="cls-26" points="194.5 73.65 158.34 94.53 158.34 92.85 194.5 71.97 194.5 73.65"/><polygon class="cls-26" points="194.5 76.52 158.34 97.4 158.34 95.72 194.5 74.84 194.5 76.52"/><polygon class="cls-26" points="178.78 88.47 158.34 100.27 158.34 98.59 178.78 86.79 178.78 88.47"/><path class="cls-28" d="M173,122.65l-83.15,48c-3.1,1.79-5.63-.13-5.63-4.26v-9.34c0-4.13,2.53-9,5.63-10.77l83.15-48c3.1-1.79,5.63.12,5.63,4.26v9.33C178.62,116,176.09,120.86,173,122.65Z"/><path class="cls-29" d="M170.31,102.82l-5.6,4.68,1.43,1-6,9.79L156.66,116a4.73,4.73,0,0,0,.34-1.65c0-1.68-1.18-2.36-2.64-1.52a5.83,5.83,0,0,0-2.63,4.56,2.33,2.33,0,0,0,.31,1.23l-5.57,9.26a2.26,2.26,0,0,0-1.32.33,4.93,4.93,0,0,0-1.39,1.28L140,127.92c0-1.67-1.18-2.35-2.64-1.51a5.83,5.83,0,0,0-2.63,4.56,1.89,1.89,0,0,0,.68,1.63l-5.28,10.72,1.19.41,5.4-11a2.66,2.66,0,0,0,.64-.27,5.61,5.61,0,0,0,2.13-2.48l3.28,1.32a4.68,4.68,0,0,0-.24,1.4c0,1.68,1.18,2.36,2.63,1.52a5.81,5.81,0,0,0,2.64-4.56,2.36,2.36,0,0,0-.28-1.18l5.59-9.31a2.15,2.15,0,0,0,1.26-.34,4.5,4.5,0,0,0,1.22-1.06l4.52,3,7.07-11.61,1.43,1Z"/><polygon class="cls-26" points="123.56 130.32 123.56 130.03 93.53 147.37 93.53 145.96 92.52 146.54 92.52 167.31 123.56 149.39 123.56 148.22 93.53 165.56 93.53 156.81 123.56 139.47 123.56 139.18 93.53 156.52 93.53 152.24 123.56 134.9 123.56 134.61 93.53 151.95 93.53 149.97 123.56 132.63 123.56 132.34 93.53 149.68 93.53 147.66 123.56 130.32"/><polygon class="cls-30" points="99.95 161.86 97.11 163.5 97.11 149.89 99.95 148.24 99.95 161.86"/><polygon class="cls-31" points="123.34 148.36 120.49 150 120.49 140.97 123.34 139.33 123.34 148.36"/><polygon class="cls-24" points="111.64 155.11 108.8 156.75 108.8 143.14 111.64 141.49 111.64 155.11"/><polygon class="cls-29" points="105.8 158.48 102.95 160.13 102.95 142.08 105.8 140.43 105.8 158.48"/><polygon class="cls-32" points="117.49 151.73 114.64 153.37 114.64 137.56 117.49 135.92 117.49 151.73"/><g class="cls-33"><polygon class="cls-23" points="205.06 49.91 205.06 29.18 132.38 155.06 150.34 144.7 205.06 49.91"/><path class="cls-23" d="M205.06,10.15v-.8c0-2.57-1.56-3.75-3.49-2.64L149.94,36.52,58.2,195.43a2,2,0,0,0,3.06.7l54.64-31.55Z"/><polygon class="cls-23" points="57.77 139.17 57.77 180.64 136.5 44.28 100.58 65.02 57.77 139.17"/></g><path class="cls-34" d="M203,75,169.84,94.1c-2,1.14-3.57-.07-3.57-2.7V72.81c0-2.63,1.6-5.68,3.57-6.82L203,46.83c2-1.13,3.57.07,3.57,2.7V68.12C206.58,70.75,205,73.81,203,75Z"/><path class="cls-35" d="M195.35,41.47a2.28,2.28,0,0,0-2.34.17L159.83,60.8c-2,1.14-3.57,4.19-3.57,6.82V86.21c0,1.54.55,2.58,1.4,3l9.84,5.11a3.15,3.15,0,0,1-1.23-2.88V72.81c0-2.63,1.6-5.68,3.57-6.82L203,46.83a2.38,2.38,0,0,1,2.18-.26Z"/><path class="cls-36" d="M366.29,214.11l-20.1,11.61a6.43,6.43,0,0,1-5.75-.24l-19.28-11.13c-1.7-1-1.88-2.47-.41-3.32l20.1-11.61a6.4,6.4,0,0,1,5.75.24l19.28,11.13C367.57,211.77,367.76,213.26,366.29,214.11Z"/><path class="cls-36" d="M367.26,285.47V212.94h0a1.82,1.82,0,0,1-1,1.17l-20.1,11.61a5.14,5.14,0,0,1-2.67.56v73a5.14,5.14,0,0,0,2.67-.56l20.1-11.61A1.62,1.62,0,0,0,367.26,285.47Z"/><path class="cls-37" d="M340.44,225.48l-19.28-11.13a2.59,2.59,0,0,1-1.38-1.63v72.53c-.14.73.32,1.54,1.38,2.15l19.28,11.13a6.53,6.53,0,0,0,3.08.8v-73A6.53,6.53,0,0,1,340.44,225.48Z"/><path class="cls-19" d="M340.44,225.48l-19.28-11.13a2.59,2.59,0,0,1-1.38-1.63v72.53c-.14.73.32,1.54,1.38,2.15l19.28,11.13a6.53,6.53,0,0,0,3.08.8v-73A6.53,6.53,0,0,1,340.44,225.48Z"/><path class="cls-38" d="M351.42,288.91a4.78,4.78,0,0,1-2.17,3.75c-1.19.69-2.16.13-2.16-1.25a4.76,4.76,0,0,1,2.16-3.74C350.45,287,351.42,287.53,351.42,288.91Z"/><path class="cls-39" d="M350.12,287.38a2,2,0,0,1,.19.89,4.78,4.78,0,0,1-2.17,3.75,2,2,0,0,1-.86.29c.33.68,1.09.86,2,.35a4.78,4.78,0,0,0,2.17-3.75C351.42,287.89,350.88,287.32,350.12,287.38Z"/><path class="cls-38" d="M358.94,284.46a4.8,4.8,0,0,1-2.16,3.75c-1.2.69-2.17.13-2.17-1.25a4.78,4.78,0,0,1,2.17-3.75C358,282.52,358.94,283.08,358.94,284.46Z"/><path class="cls-39" d="M357.64,282.93a2,2,0,0,1,.19.89,4.8,4.8,0,0,1-2.16,3.75,2.07,2.07,0,0,1-.87.29c.33.68,1.09.86,2,.35a4.8,4.8,0,0,0,2.16-3.75C358.94,283.44,358.4,282.87,357.64,282.93Z"/><path class="cls-38" d="M366.39,280.12a4.78,4.78,0,0,1-2.16,3.74c-1.19.69-2.16.13-2.16-1.25a4.79,4.79,0,0,1,2.16-3.74C365.42,278.18,366.39,278.74,366.39,280.12Z"/><path class="cls-39" d="M365.1,278.58a2,2,0,0,1,.18.9,4.78,4.78,0,0,1-2.16,3.74,2,2,0,0,1-.87.29c.34.69,1.1.86,2,.35a4.78,4.78,0,0,0,2.16-3.74C366.39,279.1,365.86,278.53,365.1,278.58Z"/><path class="cls-40" d="M356.17,303.53a.76.76,0,0,1-.76-.76v-8.28l-7.35-4.24a.76.76,0,1,1,.76-1.31l7.72,4.46a.76.76,0,0,1,.38.66v8.71A.76.76,0,0,1,356.17,303.53Z"/><path class="cls-41" d="M363.66,299.1a.76.76,0,0,1-.76-.76v-8.28l-7.35-4.24a.76.76,0,0,1,.76-1.31L364,289a.73.73,0,0,1,.38.65v8.71A.76.76,0,0,1,363.66,299.1Z"/><path class="cls-42" d="M371.15,294.67a.76.76,0,0,1-.76-.75v-8.28L363,281.39a.75.75,0,0,1,.76-1.3l7.73,4.46a.74.74,0,0,1,.37.65v8.72A.75.75,0,0,1,371.15,294.67Z"/><ellipse class="cls-14" cx="343.52" cy="208.28" rx="8.82" ry="5.09"/><path class="cls-43" d="M349.76,211.88a13.83,13.83,0,0,1-12.47,0c-1.71-1-2.57-2.28-2.58-3.57v5.47c0,1.31.84,2.62,2.58,3.62a13.77,13.77,0,0,0,12.47,0c1.73-1,2.59-2.31,2.58-3.62v-5.47C352.32,209.6,351.47,210.89,349.76,211.88Z"/><polygon class="cls-44" points="218.99 324.55 218.99 340.95 258.76 363.91 258.76 347.51 218.99 324.55"/><polygon class="cls-45" points="339.9 300.66 258.76 347.51 218.99 324.55 300.13 277.7 339.9 300.66"/><polygon class="cls-46" points="339.9 300.66 339.9 317.06 258.76 363.91 258.76 347.51 339.9 300.66"/><polygon class="cls-46" points="229.82 272.28 300.13 231.68 329.08 248.4 258.77 289 229.82 272.28"/><polygon class="cls-46" points="329.08 248.4 329.08 297.48 258.76 338.03 258.76 289 329.08 248.4"/><polygon class="cls-44" points="229.81 272.28 258.76 289 258.76 338.03 229.81 321.36 229.81 272.28"/><path class="cls-47" d="M284,294.05l23.61-13.64a5.36,5.36,0,0,1,8,4.64v8.73a5.34,5.34,0,0,1-2.68,4.64L289.34,312a5.36,5.36,0,0,1-8-4.64v-8.72A5.36,5.36,0,0,1,284,294.05Z"/><path class="cls-48" d="M281.3,307.4v-8.72a5.36,5.36,0,0,1,2.68-4.63l23.61-13.64a5.32,5.32,0,0,1,5.92.38c-.18-.14-.37-.26-.56-.38l-3.29-2.17a5.3,5.3,0,0,0-5.39,0l-23.61,13.63a5.34,5.34,0,0,0-2.68,4.64v8.71a5.29,5.29,0,0,0,2.68,4.64L284,312h0A5.32,5.32,0,0,1,281.3,307.4Z"/><path class="cls-49" d="M312.28,280.09a5.44,5.44,0,0,1,.39,2v8.73a5.37,5.37,0,0,1-2.68,4.64l-23.61,13.62a5.28,5.28,0,0,1-4.69.32,5.36,5.36,0,0,0,7.65,2.64L313,298.42a5.34,5.34,0,0,0,2.68-4.64v-8.73A5.32,5.32,0,0,0,312.28,280.09Z"/><g class="cls-50"><path class="cls-51" d="M308.77,286l-24.19,14c-.25.15-.47,0-.47-.35h0a1.17,1.17,0,0,1,.47-.91l24.19-14c.25-.15.47,0,.47.36h0A1.15,1.15,0,0,1,308.77,286Z"/><path class="cls-52" d="M308.77,288.4l-24.19,14c-.25.15-.47,0-.47-.35h0a1.15,1.15,0,0,1,.47-.9l24.19-14c.25-.14.47,0,.47.36h0A1.15,1.15,0,0,1,308.77,288.4Z"/><path class="cls-53" d="M308.77,290.81l-24.19,14c-.25.15-.47,0-.47-.35h0a1.15,1.15,0,0,1,.47-.9l24.19-14c.25-.15.47,0,.47.35h0A1.15,1.15,0,0,1,308.77,290.81Z"/></g><g class="cls-50"><path class="cls-54" d="M309.17,223.2l-56.08,32.38c-1.8,1-3.28-.07-3.28-2.47V164.52a7.89,7.89,0,0,1,3.28-6.26l56.08-32.38c1.8-1,3.28.08,3.28,2.48V217A7.87,7.87,0,0,1,309.17,223.2Z"/><path class="cls-55" d="M260.06,168.28l-5.62,3.25c-.41.23-.73,0-.73-.55h0a1.73,1.73,0,0,1,.73-1.39l5.62-3.25c.41-.23.73,0,.73.55h0A1.71,1.71,0,0,1,260.06,168.28Z"/><path class="cls-56" d="M260.06,171l-5.62,3.25c-.41.24-.73,0-.73-.55h0a1.73,1.73,0,0,1,.73-1.39l5.62-3.25c.41-.23.73,0,.73.55h0A1.71,1.71,0,0,1,260.06,171Z"/><polygon class="cls-57" points="285.87 153.39 261.91 167.22 261.91 165.27 285.87 151.44 285.87 153.39"/><polygon class="cls-58" points="299.69 145.41 287 152.73 287 150.79 299.69 143.47 299.69 145.41"/><polygon class="cls-59" points="294.87 154.75 261.91 173.78 261.91 171.84 294.87 152.81 294.87 154.75"/><polygon class="cls-60" points="293.34 152.24 261.91 170.38 261.91 168.67 293.34 150.52 293.34 152.24"/><polygon class="cls-61" points="301.81 147.35 294.87 151.36 294.87 149.64 301.81 145.63 301.81 147.35"/><path class="cls-62" d="M260.06,180.11l-5.62,3.25c-.41.23-.73,0-.73-.55h0a1.71,1.71,0,0,1,.73-1.39l5.62-3.25c.41-.23.73,0,.73.55h0A1.73,1.73,0,0,1,260.06,180.11Z"/><path class="cls-63" d="M260.06,182.83l-5.62,3.25c-.41.23-.73,0-.73-.55h0a1.73,1.73,0,0,1,.73-1.39l5.62-3.25c.41-.23.73,0,.73.55h0A1.73,1.73,0,0,1,260.06,182.83Z"/><path class="cls-64" d="M260.06,186.67l-5.62,3.25c-.41.23-.73,0-.73-.55h0a1.73,1.73,0,0,1,.73-1.39l5.62-3.25c.41-.23.73,0,.73.55h0A1.71,1.71,0,0,1,260.06,186.67Z"/><polygon class="cls-65" points="285.87 165.21 261.91 179.04 261.91 177.1 285.87 163.27 285.87 165.21"/><polygon class="cls-66" points="304.26 154.59 287 164.56 287 162.62 304.26 152.65 304.26 154.59"/><polygon class="cls-67" points="298.34 164.57 261.91 185.6 261.91 183.66 298.34 162.63 298.34 164.57"/><polygon class="cls-68" points="293.34 164.07 261.91 182.21 261.91 180.49 293.34 162.35 293.34 164.07"/><polygon class="cls-69" points="293.34 170.82 261.91 188.97 261.91 187.25 293.34 169.1 293.34 170.82"/><polygon class="cls-70" points="301.81 159.18 294.87 163.19 294.87 161.47 301.81 157.46 301.81 159.18"/><path class="cls-71" d="M260.06,194.68l-5.62,3.25c-.41.23-.73,0-.73-.55h0a1.71,1.71,0,0,1,.73-1.39l5.62-3.25c.41-.23.73,0,.73.55h0A1.73,1.73,0,0,1,260.06,194.68Z"/><path class="cls-72" d="M260.06,197.4l-5.62,3.25c-.41.23-.73,0-.73-.55h0a1.73,1.73,0,0,1,.73-1.39l5.62-3.25c.41-.23.73,0,.73.55h0A1.73,1.73,0,0,1,260.06,197.4Z"/><polygon class="cls-73" points="285.87 179.78 261.91 193.61 261.91 191.67 285.87 177.84 285.87 179.78"/><polygon class="cls-74" points="299.69 171.8 287 179.13 287 177.19 299.69 169.86 299.69 171.8"/><polygon class="cls-75" points="294.87 181.15 261.91 200.18 261.91 198.23 294.87 179.21 294.87 181.15"/><polygon class="cls-76" points="293.34 178.64 261.91 196.78 261.91 195.06 293.34 176.92 293.34 178.64"/><polygon class="cls-77" points="301.81 173.75 294.87 177.76 294.87 176.04 301.81 172.03 301.81 173.75"/><path class="cls-78" d="M260.06,206.51l-5.62,3.25c-.41.23-.73,0-.73-.55h0a1.75,1.75,0,0,1,.73-1.4l5.62-3.25c.41-.23.73,0,.73.55h0A1.75,1.75,0,0,1,260.06,206.51Z"/><path class="cls-79" d="M260.06,209.23l-5.62,3.25c-.41.23-.73,0-.73-.55h0a1.75,1.75,0,0,1,.73-1.4l5.62-3.25c.41-.23.73,0,.73.56h0A1.73,1.73,0,0,1,260.06,209.23Z"/><path class="cls-80" d="M260.06,213.07l-5.62,3.25c-.41.23-.73,0-.73-.55h0a1.71,1.71,0,0,1,.73-1.39l5.62-3.25c.41-.23.73,0,.73.55h0A1.73,1.73,0,0,1,260.06,213.07Z"/><polygon class="cls-81" points="279.94 195.03 261.91 205.44 261.91 203.5 279.94 193.09 279.94 195.03"/><polygon class="cls-82" points="304.26 180.99 282.15 193.76 282.15 191.81 304.26 179.05 304.26 180.99"/><polygon class="cls-83" points="298.34 190.97 261.91 212 261.91 210.06 298.34 189.03 298.34 190.97"/><polygon class="cls-84" points="284.01 195.85 261.91 208.61 261.91 206.89 284.01 194.13 284.01 195.85"/><polygon class="cls-85" points="300.84 192.89 261.91 215.36 261.91 213.65 300.84 191.17 300.84 192.89"/><polygon class="cls-86" points="301.81 185.57 286.47 194.43 286.47 192.71 301.81 183.85 301.81 185.57"/><path class="cls-87" d="M260.06,221.08l-5.62,3.25c-.41.23-.73,0-.73-.55h0a1.75,1.75,0,0,1,.73-1.4l5.62-3.25c.41-.23.73,0,.73.55h0A1.75,1.75,0,0,1,260.06,221.08Z"/><path class="cls-88" d="M260.06,223.8l-5.62,3.25c-.41.23-.73,0-.73-.55h0a1.71,1.71,0,0,1,.73-1.39l5.62-3.26c.41-.23.73,0,.73.56h0A1.73,1.73,0,0,1,260.06,223.8Z"/><polygon class="cls-89" points="285.87 206.18 261.91 220.01 261.91 218.07 285.87 204.24 285.87 206.18"/><polygon class="cls-90" points="303.92 195.76 287 205.53 287 203.58 303.92 193.81 303.92 195.76"/><polygon class="cls-91" points="287.89 211.57 261.91 226.57 261.91 224.63 287.89 209.63 287.89 211.57"/><polygon class="cls-92" points="280.69 212.34 261.91 223.18 261.91 221.46 280.69 210.62 280.69 212.34"/><polygon class="cls-93" points="301.81 200.14 281.49 211.88 281.49 210.16 301.81 198.43 301.81 200.14"/><path class="cls-94" d="M260.06,232.9l-5.62,3.25c-.41.23-.73,0-.73-.55h0a1.73,1.73,0,0,1,.73-1.39l5.62-3.25c.41-.23.73,0,.73.55h0A1.73,1.73,0,0,1,260.06,232.9Z"/><path class="cls-95" d="M260.06,235.62l-5.62,3.25c-.41.24-.73,0-.73-.55h0a1.73,1.73,0,0,1,.73-1.39l5.62-3.25c.41-.23.73,0,.73.55h0A1.71,1.71,0,0,1,260.06,235.62Z"/><polygon class="cls-96" points="285.87 218.01 261.91 231.84 261.91 229.89 285.87 216.06 285.87 218.01"/><polygon class="cls-97" points="304.26 207.39 287 217.35 287 215.41 304.26 205.45 304.26 207.39"/><polygon class="cls-98" points="298.34 217.37 261.91 238.4 261.91 236.46 298.34 215.43 298.34 217.37"/><polygon class="cls-99" points="293.34 216.86 261.91 235 261.91 233.29 293.34 215.14 293.34 216.86"/><polygon class="cls-100" points="293.34 223.62 261.91 241.76 261.91 240.04 293.34 221.9 293.34 223.62"/><polygon class="cls-101" points="301.81 211.97 294.87 215.98 294.87 214.26 301.81 210.25 301.81 211.97"/><path class="cls-102" d="M304.08,123.6l-13.2,7.62c-2.44,1.41-4.43-.1-4.43-3.35h0c0-3.25,2-7.06,4.43-8.47l13.2-7.62c2.44-1.41,4.43.1,4.43,3.35h0C308.51,118.38,306.52,122.19,304.08,123.6Z"/><path class="cls-103" d="M296.28,125.84,293.11,124l.21-.37c1.86-3.25,2.85-5,2.95-5.09l.17.2.18.17c-.13.21-1.61,2.78-2.65,4.59l2.74,1.58Z"/><path class="cls-104" d="M298.68,124.45l3.17-5.48-.22-.13c-1.85-1.1-2.84-1.67-2.94-1.69l-.17.39-.19.39c.14,0,1.62.92,2.65,1.53l-2.73,4.74Z"/></g><polygon class="cls-105" points="240.64 272.28 258.77 282.75 318.26 248.4 318.26 99.8 300.13 89.33 240.64 123.68 240.64 272.28"/><path class="cls-36" d="M232.49,290.8l-20.11,11.61a6.4,6.4,0,0,1-5.75-.24L187.35,291c-1.69-1-1.88-2.47-.41-3.32l20.11-11.61a6.41,6.41,0,0,1,5.74.24l19.28,11.13C233.77,288.46,234,290,232.49,290.8Z"/><path class="cls-36" d="M233.45,362.16V289.63h0a1.83,1.83,0,0,1-1,1.17l-20.11,11.61a5.14,5.14,0,0,1-2.67.56v73a5.14,5.14,0,0,0,2.67-.56l20.11-11.61A1.63,1.63,0,0,0,233.45,362.16Z"/><path class="cls-106" d="M206.63,302.17,187.35,291a2.54,2.54,0,0,1-1.37-1.63V362c-.15.72.32,1.53,1.37,2.14l19.28,11.13a6.53,6.53,0,0,0,3.08.8V303A6.53,6.53,0,0,1,206.63,302.17Z"/><path class="cls-19" d="M206.63,302.17,187.35,291a2.54,2.54,0,0,1-1.37-1.63V362c-.15.72.32,1.53,1.37,2.14l19.28,11.13a6.53,6.53,0,0,0,3.08.8V303A6.53,6.53,0,0,1,206.63,302.17Z"/><path class="cls-38" d="M216.26,364.07a4.8,4.8,0,0,1-2.16,3.75c-1.2.69-2.17.13-2.17-1.25a4.76,4.76,0,0,1,2.17-3.74C215.29,362.14,216.26,362.7,216.26,364.07Z"/><path class="cls-39" d="M215,362.54a2,2,0,0,1,.19.89,4.8,4.8,0,0,1-2.16,3.75,2.07,2.07,0,0,1-.87.29c.33.68,1.09.86,2,.35a4.8,4.8,0,0,0,2.16-3.75C216.26,363.05,215.72,362.48,215,362.54Z"/><path class="cls-38" d="M223.78,359.62a4.8,4.8,0,0,1-2.16,3.75c-1.2.69-2.16.13-2.16-1.25a4.77,4.77,0,0,1,2.16-3.75C222.81,357.69,223.78,358.24,223.78,359.62Z"/><path class="cls-39" d="M222.49,358.09a2.13,2.13,0,0,1,.18.89,4.8,4.8,0,0,1-2.16,3.75,2,2,0,0,1-.87.29c.33.68,1.09.86,2,.35a4.8,4.8,0,0,0,2.16-3.75C223.78,358.6,223.25,358,222.49,358.09Z"/><path class="cls-38" d="M231.23,355.28a4.75,4.75,0,0,1-2.16,3.74c-1.19.69-2.16.13-2.16-1.25a4.79,4.79,0,0,1,2.16-3.74C230.27,353.34,231.23,353.9,231.23,355.28Z"/><path class="cls-39" d="M229.94,353.74a2,2,0,0,1,.18.9,4.75,4.75,0,0,1-2.16,3.74,2,2,0,0,1-.87.29c.34.69,1.1.86,2,.35a4.75,4.75,0,0,0,2.16-3.74C231.23,354.26,230.7,353.69,229.94,353.74Z"/><path class="cls-107" d="M221,378.69a.76.76,0,0,1-.76-.76v-8.28l-7.35-4.24a.76.76,0,0,1,.76-1.31l7.72,4.46a.76.76,0,0,1,.38.66v8.71A.76.76,0,0,1,221,378.69Z"/><path class="cls-108" d="M228.5,374.26a.76.76,0,0,1-.76-.76v-8.27L220.39,361a.75.75,0,0,1-.27-1,.76.76,0,0,1,1-.28l7.73,4.47a.74.74,0,0,1,.37.65v8.71A.75.75,0,0,1,228.5,374.26Z"/><path class="cls-109" d="M236,369.83a.75.75,0,0,1-.75-.75V360.8l-7.35-4.25a.75.75,0,1,1,.75-1.3l7.73,4.46a.75.75,0,0,1,.38.65v8.72A.76.76,0,0,1,236,369.83Z"/><path class="cls-14" d="M216.09,280.73c3.44,2,3.44,5.21,0,7.2a13.83,13.83,0,0,1-12.47,0c-3.44-2-3.44-5.22,0-7.2A13.77,13.77,0,0,1,216.09,280.73Z"/><path class="cls-110" d="M216.09,287.93a13.83,13.83,0,0,1-12.47,0c-1.71-1-2.57-2.28-2.58-3.58v5.47c0,1.32.85,2.63,2.58,3.63a13.77,13.77,0,0,0,12.47,0c1.73-1,2.59-2.31,2.58-3.63v-5.47C218.66,285.65,217.8,286.94,216.09,287.93Z"/><polygon class="cls-36" points="165.96 132.99 184.96 122.02 203.97 132.99 184.96 144.06 165.96 132.99"/><polygon class="cls-36" points="184.96 144.06 184.96 188.29 203.97 176.84 203.97 132.99 184.96 144.06"/><polygon class="cls-19" points="165.96 132.99 184.96 144.06 184.96 188.29 165.96 176.94 165.96 132.99"/><path d="M164.82,234.4c0,.38.26.71.77,1,.14.09,0-2.05.48-1.69.14.1,7,5.47,10.89,4.48a.83.83,0,0,0,.58-.83v-.87c.05-1-1.4-2.46-3.61-4.61-2.43-2.37-4-3.85-7.61-1.75-1,.6-1.46,1.05-1.46,1.43Z"/><path class="cls-111" d="M173.93,231.91c2.94,2.86,4.54,4.55,3,5.42s-4.52-.44-7.61-2.78c-2.71-2-6.67-2.29-3-4.39S171.5,229.54,173.93,231.91Z"/><path class="cls-112" d="M171,230.28l-.19-22.57a2.65,2.65,0,0,0-1.69-2.45l-1.77-.68-7.43,4.93,3.63,1.85a34.42,34.42,0,0,0,1.1,12.09s1.25,2.54,1,8.46C165.65,231.91,169.61,233.15,171,230.28Z"/><path d="M154,239.8c0,.38.26.71.77,1,.15.09,0-2.05.48-1.69.15.1,7,5.47,10.89,4.48a.81.81,0,0,0,.58-.83v-.87c.05-1-1.4-2.46-3.61-4.61-2.43-2.37-4-3.85-7.61-1.75-1,.6-1.46,1.05-1.46,1.43Z"/><path class="cls-111" d="M163.09,237.31c2.94,2.86,4.54,4.55,3,5.42s-4.52-.44-7.61-2.78c-2.71-2-6.67-2.29-3-4.39S160.66,234.94,163.09,237.31Z"/><path class="cls-113" d="M160.14,235.94l-.22-26.43-8.73,2.84,1.5,4.3a31.77,31.77,0,0,0,1.1,11.58s1.25,2.55,1,8.47C154.79,236.7,158,238.52,160.14,235.94Z"/><path class="cls-114" d="M152.32,182.62s9.73-8.85,3.8-24.59l-4.56,16.34Z"/><path class="cls-115" d="M163.85,204.18h0a2.87,2.87,0,0,1-3.56-1.93l-7.8-26.59a2.87,2.87,0,0,1,1.93-3.56h0A2.88,2.88,0,0,1,158,174l7.8,26.58A2.87,2.87,0,0,1,163.85,204.18Z"/><path class="cls-116" d="M155.89,197.11l13.23,8.15s-4.61-1.12-16.43,11.39l-13-7.5Z"/><path class="cls-117" d="M141.39,210.29a.77.77,0,0,0,.37.12c1.91.15,8.8-1.35,15.7-9.12a3.59,3.59,0,0,0,.93-2.23V177a3.6,3.6,0,0,0-1.55-3.36l-5.18-3A3.62,3.62,0,0,0,148,171L140.9,175a11.51,11.51,0,0,0-5.19,9v22.18a1.12,1.12,0,0,0,.5,1.06Z"/><path class="cls-118" d="M138.14,212.35h0a2.87,2.87,0,0,1-2.86-2.87V181.92a2.87,2.87,0,0,1,2.86-2.87h0a2.88,2.88,0,0,1,2.87,2.87v27.56A2.88,2.88,0,0,1,138.14,212.35Z"/><path class="cls-13" d="M142.17,176.41a1.82,1.82,0,0,0,1.07,1.52,5.74,5.74,0,0,0,5.17,0,1.8,1.8,0,0,0,1.07-1.52v-4.8a1.8,1.8,0,0,0-1.07-1.52,5.74,5.74,0,0,0-5.17,0,1.82,1.82,0,0,0-1.07,1.52Z"/><path class="cls-119" d="M155.89,164a10.07,10.07,0,1,1-10.06-10.07A10.06,10.06,0,0,1,155.89,164Z"/><path class="cls-114" d="M148.81,182.62s-7.49-8.25-2.29-23.53l9.32,3.21s3.2-7.94-7.34-10.24c0,0-7-1.52-9.47,4.28,0,0-5.65.46-3.51,12.07C135.52,168.41,135.83,179.41,148.81,182.62Z"/><path d="M170.54,131.84c-.06,1.14,1.65,2.73,4.27,4.24,3.47,2,4.7,4.55,9,2.07,1.23-.71,1.74-1.28,1.77-1.77v-2.67c.12-1.24-2.86-2-5.35-3.46-3.48-2-7.22-3.09-9-2.06a1.18,1.18,0,0,0-.68,1Z"/><path class="cls-120" d="M174.81,133.38c-3.48-2-5.37-4.17-3.59-5.19s5.53.06,9,2.06,7.87,2.72,3.58,5.2S178.28,135.39,174.81,133.38Z"/><path d="M180.2,125.19c-.06,1.13,1.65,2.73,4.27,4.24,3.47,2,4.7,4.54,9,2.06,1.23-.7,1.74-1.27,1.77-1.76v-2.67c.12-1.24-2.86-2-5.36-3.46-3.47-2-7.21-3.1-9-2.07a1.2,1.2,0,0,0-.68,1Z"/><path class="cls-120" d="M184.47,126.73c-3.48-2-5.37-4.17-3.59-5.2s5.53.06,9,2.07,7.88,2.72,3.59,5.2S187.94,128.74,184.47,126.73Z"/><path class="cls-121" d="M182.58,100.7h0a2.86,2.86,0,0,1-1.7-3.65l7.62-20.93a2.86,2.86,0,0,1,3.66-1.7h0a2.85,2.85,0,0,1,1.7,3.65L186.24,99A2.87,2.87,0,0,1,182.58,100.7Z"/><path class="cls-122" d="M194.12,81.9l2.47-6.75A4.42,4.42,0,0,0,194,69.5h0a4.42,4.42,0,0,0-5.65,2.63l-2.46,6.75S187.35,83.78,194.12,81.9Z"/><path class="cls-123" d="M185.46,132.49a1.81,1.81,0,0,0,.2-.86v-29.8c0-1.88-1.94-3.42-4.32-3.42h0c-2.37,0-4.32,1.54-4.32,3.42v32.4a1.07,1.07,0,0,0,.77,1C179.45,135.78,183.37,136.49,185.46,132.49Z"/><path class="cls-124" d="M194.8,125.6a1.81,1.81,0,0,0,.2-.86V94.94c0-1.88-1.94-3.43-4.31-3.43h0c-2.38,0-4.32,1.55-4.32,3.43v32.4a1.08,1.08,0,0,0,.77,1C188.79,128.88,192.72,129.6,194.8,125.6Z"/><path class="cls-125" d="M178.45,107.19a.7.7,0,0,0,.36.12c1.91.15,8.77-1.35,15.64-9.09a3.54,3.54,0,0,0,.93-2.22V74a3.6,3.6,0,0,0-1.54-3.35l-5.16-3A3.63,3.63,0,0,0,185,68L178,72.08a11.47,11.47,0,0,0-5.17,9v22.09a1.14,1.14,0,0,0,.5,1.06Z"/><path class="cls-13" d="M180.44,73.44A1.8,1.8,0,0,0,181.51,75a5.7,5.7,0,0,0,5.15,0,1.79,1.79,0,0,0,1.06-1.51V68.66a1.78,1.78,0,0,0-1.06-1.51,5.64,5.64,0,0,0-5.15,0,1.79,1.79,0,0,0-1.07,1.51Z"/><path class="cls-126" d="M194.11,61a10,10,0,1,1-10-10A10,10,0,0,1,194.11,61Z"/><path class="cls-127" d="M176.59,99.11h0a2.86,2.86,0,0,1-2.76-2.94l.4-11.42A2.86,2.86,0,0,1,177.17,82h0a2.87,2.87,0,0,1,2.76,2.94l-.4,11.42A2.86,2.86,0,0,1,176.59,99.11Z"/><path class="cls-128" d="M181.38,88.49l.22-7.18a4.42,4.42,0,0,0-4.27-4.55h0A4.44,4.44,0,0,0,172.78,81l-.22,7.18S175.53,92.39,181.38,88.49Z"/><path class="cls-129" d="M162.2,89.48h0A2.87,2.87,0,0,1,166,88.1l11.91,5.58a2.86,2.86,0,0,1,1.38,3.79h0a2.86,2.86,0,0,1-3.79,1.38l-11.9-5.58A2.86,2.86,0,0,1,162.2,89.48Z"/><path class="cls-130" d="M189.73,70.16c-3.16,1.85-5.57.45-6.43-.89-2.17-3.35-2.53-1.12-3.81-2.69-1.69-2.78-1.32-6.56-3.66-8.31-3.36-2.51-2.44-7.51,6.33-9.74,11.78-3,16.43,11.84,9.07,20.42A4.53,4.53,0,0,1,189.73,70.16Z"/><path class="cls-10" d="M180.58,67c-.84.85-1.78.6-2.09-.56a4.16,4.16,0,0,1,1-3.62,1.14,1.14,0,0,1,2.09.56A4.12,4.12,0,0,1,180.58,67Z"/></g></g></g></svg>